G04 (created by PCBNEW (2013-07-07 BZR 4022)-stable) date 30/07/2014 12:10:21 p.m.*
%MOIN*%
G04 Gerber Fmt 3.4, Leading zero omitted, Abs format*
%FSLAX34Y34*%
G01*
G70*
G90*
G04 APERTURE LIST*
%ADD10C,0.00590551*%
%ADD11C,0.0593*%
%ADD12R,0.0593X0.0593*%
%ADD13C,0.074*%
%ADD14C,0.055*%
%ADD15O,0.0593X0.1187*%
%ADD16O,0.1187X0.0593*%
%ADD17C,0.0514*%
%ADD18R,0.0593X0.1187*%
%ADD19C,0.035*%
%ADD20C,0.01*%
G04 APERTURE END LIST*
G54D10*
G54D11*
X52700Y-51800D03*
X51700Y-51800D03*
X50700Y-51800D03*
X49700Y-51800D03*
X53700Y-51800D03*
X54700Y-51800D03*
X55700Y-51800D03*
G54D12*
X56700Y-51800D03*
G54D11*
X58593Y-42100D03*
X57807Y-42100D03*
X59381Y-42100D03*
X57019Y-42100D03*
G54D13*
X66900Y-45700D03*
X66900Y-49700D03*
X66900Y-44700D03*
X66900Y-48700D03*
X66900Y-47700D03*
X66900Y-46700D03*
G54D14*
X63690Y-45610D03*
X60690Y-45610D03*
X52400Y-44200D03*
X49400Y-44200D03*
X60120Y-46930D03*
X63120Y-46930D03*
X58850Y-45800D03*
X55850Y-45800D03*
X58770Y-47080D03*
X55770Y-47080D03*
G54D15*
X65400Y-42100D03*
X64400Y-42100D03*
X63400Y-42100D03*
X62400Y-42100D03*
X61400Y-42100D03*
X60400Y-42100D03*
G54D16*
X50800Y-45500D03*
X50800Y-46500D03*
X50800Y-47500D03*
X50800Y-48500D03*
X50800Y-49500D03*
X50800Y-50500D03*
G54D15*
X58500Y-52200D03*
X59500Y-52200D03*
X55900Y-42100D03*
X54900Y-42100D03*
G54D17*
X57380Y-50200D03*
X58380Y-50200D03*
X59380Y-50200D03*
X60380Y-50200D03*
X59880Y-49200D03*
X60880Y-49200D03*
X65380Y-44700D03*
X60380Y-44200D03*
X59380Y-44200D03*
X58380Y-44200D03*
X57380Y-44200D03*
X56380Y-44200D03*
X55380Y-44200D03*
X54380Y-44200D03*
X53380Y-44200D03*
X53380Y-50200D03*
X54380Y-50200D03*
X55380Y-50200D03*
X56380Y-50200D03*
X63380Y-50200D03*
X61380Y-44200D03*
X65380Y-45700D03*
X65380Y-49700D03*
X64380Y-50200D03*
X62380Y-50200D03*
X62380Y-44200D03*
X63380Y-44200D03*
X65380Y-47700D03*
X64380Y-44200D03*
X65380Y-48700D03*
X61380Y-50200D03*
X65380Y-46700D03*
G54D14*
X66900Y-42400D03*
X66900Y-43400D03*
G54D18*
X64900Y-52200D03*
G54D15*
X65900Y-52200D03*
X66900Y-52200D03*
G54D18*
X50200Y-42100D03*
G54D15*
X49200Y-42100D03*
G54D18*
X61200Y-52200D03*
G54D15*
X62200Y-52200D03*
X63200Y-52200D03*
G54D18*
X53600Y-42100D03*
G54D15*
X52600Y-42100D03*
X51600Y-42100D03*
G54D19*
X61300Y-47800D03*
G54D20*
X61300Y-47800D02*
X61300Y-45200D01*
X61400Y-42800D02*
X61400Y-42100D01*
X60900Y-43300D02*
X61400Y-42800D01*
X60900Y-44800D02*
X60900Y-43300D01*
X61300Y-45200D02*
X60900Y-44800D01*
X58500Y-52200D02*
X58500Y-50320D01*
X58500Y-50320D02*
X58380Y-50200D01*
X63200Y-52200D02*
X63200Y-51600D01*
X60480Y-51300D02*
X59380Y-50200D01*
X62900Y-51300D02*
X60480Y-51300D01*
X63200Y-51600D02*
X62900Y-51300D01*
X66900Y-52200D02*
X66900Y-51500D01*
X61180Y-51000D02*
X60380Y-50200D01*
X66400Y-51000D02*
X61180Y-51000D01*
X66900Y-51500D02*
X66400Y-51000D01*
X53700Y-51800D02*
X53800Y-51800D01*
X55580Y-51000D02*
X56380Y-50200D01*
X54600Y-51000D02*
X55580Y-51000D01*
X53800Y-51800D02*
X54600Y-51000D01*
X65380Y-45700D02*
X66900Y-45700D01*
X66900Y-48700D02*
X65380Y-48700D01*
X66900Y-47700D02*
X65380Y-47700D01*
X60690Y-45610D02*
X60690Y-45510D01*
X60380Y-45200D02*
X60380Y-44200D01*
X60690Y-45510D02*
X60380Y-45200D01*
X60120Y-46930D02*
X60120Y-46660D01*
X59910Y-44730D02*
X59380Y-44200D01*
X59910Y-46450D02*
X59910Y-44730D01*
X60120Y-46660D02*
X59910Y-46450D01*
X55850Y-45800D02*
X56740Y-45800D01*
X57380Y-45160D02*
X57380Y-44200D01*
X56740Y-45800D02*
X57380Y-45160D01*
X55770Y-47080D02*
X55350Y-47080D01*
X55180Y-45400D02*
X56380Y-44200D01*
X55180Y-46910D02*
X55180Y-45400D01*
X55350Y-47080D02*
X55180Y-46910D01*
X55380Y-44200D02*
X55380Y-43520D01*
X55900Y-43000D02*
X55900Y-42100D01*
X55380Y-43520D02*
X55900Y-43000D01*
X52400Y-44200D02*
X52400Y-43300D01*
X51600Y-42500D02*
X51600Y-42100D01*
X52400Y-43300D02*
X51600Y-42500D01*
X53380Y-44200D02*
X52400Y-44200D01*
X51700Y-51800D02*
X52500Y-51000D01*
X54200Y-50200D02*
X54380Y-50200D01*
X53400Y-51000D02*
X54200Y-50200D01*
X52500Y-51000D02*
X53400Y-51000D01*
X66900Y-49700D02*
X65380Y-49700D01*
X59880Y-49200D02*
X53200Y-49200D01*
X52500Y-48500D02*
X50800Y-48500D01*
X53200Y-49200D02*
X52500Y-48500D01*
X60880Y-49200D02*
X60880Y-48880D01*
X52500Y-47500D02*
X50800Y-47500D01*
X53400Y-48400D02*
X52500Y-47500D01*
X60400Y-48400D02*
X53400Y-48400D01*
X60880Y-48880D02*
X60400Y-48400D01*
X63690Y-45610D02*
X63690Y-45210D01*
X65400Y-42800D02*
X65400Y-42100D01*
X65100Y-43100D02*
X65400Y-42800D01*
X64400Y-43100D02*
X65100Y-43100D01*
X63900Y-43600D02*
X64400Y-43100D01*
X63900Y-45000D02*
X63900Y-43600D01*
X63690Y-45210D02*
X63900Y-45000D01*
X66900Y-42400D02*
X66300Y-42400D01*
X66000Y-42100D02*
X65400Y-42100D01*
X66300Y-42400D02*
X66000Y-42100D01*
X59381Y-42100D02*
X59381Y-43119D01*
X58900Y-45750D02*
X58850Y-45800D01*
X58900Y-43600D02*
X58900Y-45750D01*
X59381Y-43119D02*
X58900Y-43600D01*
X58593Y-42100D02*
X58593Y-42407D01*
X57900Y-46210D02*
X58770Y-47080D01*
X57900Y-43100D02*
X57900Y-46210D01*
X58593Y-42407D02*
X57900Y-43100D01*
G54D10*
G36*
X68950Y-54330D02*
X67524Y-54330D01*
X67524Y-46798D01*
X67520Y-46690D01*
X67520Y-45577D01*
X67425Y-45349D01*
X67276Y-45199D01*
X67425Y-45051D01*
X67519Y-44823D01*
X67520Y-44577D01*
X67425Y-44349D01*
X67425Y-44348D01*
X67425Y-43296D01*
X67345Y-43103D01*
X67197Y-42955D01*
X67064Y-42899D01*
X67197Y-42845D01*
X67344Y-42697D01*
X67424Y-42504D01*
X67425Y-42296D01*
X67345Y-42103D01*
X67197Y-41955D01*
X67004Y-41875D01*
X66796Y-41874D01*
X66603Y-41954D01*
X66457Y-42100D01*
X66424Y-42100D01*
X66212Y-41887D01*
X66114Y-41822D01*
X66000Y-41800D01*
X65946Y-41800D01*
X65946Y-41786D01*
X65904Y-41577D01*
X65786Y-41400D01*
X65609Y-41281D01*
X65400Y-41239D01*
X65190Y-41281D01*
X65013Y-41400D01*
X64900Y-41570D01*
X64786Y-41400D01*
X64609Y-41281D01*
X64400Y-41239D01*
X64190Y-41281D01*
X64013Y-41400D01*
X63900Y-41570D01*
X63786Y-41400D01*
X63609Y-41281D01*
X63400Y-41239D01*
X63190Y-41281D01*
X63013Y-41400D01*
X62900Y-41570D01*
X62786Y-41400D01*
X62609Y-41281D01*
X62400Y-41239D01*
X62190Y-41281D01*
X62013Y-41400D01*
X61900Y-41570D01*
X61786Y-41400D01*
X61609Y-41281D01*
X61400Y-41239D01*
X61190Y-41281D01*
X61013Y-41400D01*
X60895Y-41577D01*
X60894Y-41578D01*
X60885Y-41547D01*
X60751Y-41381D01*
X60562Y-41278D01*
X60534Y-41273D01*
X60450Y-41321D01*
X60450Y-42050D01*
X60457Y-42050D01*
X60457Y-42150D01*
X60450Y-42150D01*
X60450Y-42878D01*
X60534Y-42926D01*
X60562Y-42921D01*
X60751Y-42818D01*
X60885Y-42652D01*
X60894Y-42621D01*
X60895Y-42622D01*
X60998Y-42777D01*
X60687Y-43087D01*
X60622Y-43185D01*
X60600Y-43300D01*
X60600Y-43742D01*
X60481Y-43693D01*
X60279Y-43692D01*
X60093Y-43769D01*
X59950Y-43912D01*
X59879Y-44082D01*
X59810Y-43913D01*
X59667Y-43770D01*
X59481Y-43693D01*
X59279Y-43692D01*
X59200Y-43725D01*
X59200Y-43724D01*
X59593Y-43331D01*
X59593Y-43331D01*
X59658Y-43233D01*
X59680Y-43119D01*
X59681Y-43119D01*
X59681Y-42567D01*
X59690Y-42563D01*
X59844Y-42409D01*
X59853Y-42387D01*
X59853Y-42447D01*
X59914Y-42652D01*
X60048Y-42818D01*
X60237Y-42921D01*
X60265Y-42926D01*
X60350Y-42878D01*
X60350Y-42150D01*
X60342Y-42150D01*
X60342Y-42050D01*
X60350Y-42050D01*
X60350Y-41321D01*
X60265Y-41273D01*
X60237Y-41278D01*
X60048Y-41381D01*
X59914Y-41547D01*
X59853Y-41753D01*
X59853Y-41812D01*
X59844Y-41790D01*
X59690Y-41636D01*
X59490Y-41553D01*
X59272Y-41553D01*
X59071Y-41636D01*
X58986Y-41721D01*
X58902Y-41636D01*
X58702Y-41553D01*
X58484Y-41553D01*
X58283Y-41636D01*
X58199Y-41720D01*
X58116Y-41636D01*
X57916Y-41553D01*
X57698Y-41553D01*
X57497Y-41636D01*
X57412Y-41721D01*
X57328Y-41636D01*
X57128Y-41553D01*
X56910Y-41553D01*
X56709Y-41636D01*
X56555Y-41790D01*
X56472Y-41990D01*
X56472Y-42208D01*
X56555Y-42409D01*
X56709Y-42563D01*
X56909Y-42646D01*
X57127Y-42646D01*
X57328Y-42563D01*
X57413Y-42478D01*
X57497Y-42563D01*
X57697Y-42646D01*
X57915Y-42646D01*
X57938Y-42636D01*
X57687Y-42887D01*
X57622Y-42985D01*
X57600Y-43100D01*
X57600Y-43742D01*
X57481Y-43693D01*
X57279Y-43692D01*
X57093Y-43769D01*
X56950Y-43912D01*
X56879Y-44082D01*
X56810Y-43913D01*
X56667Y-43770D01*
X56481Y-43693D01*
X56279Y-43692D01*
X56093Y-43769D01*
X55950Y-43912D01*
X55879Y-44082D01*
X55810Y-43913D01*
X55680Y-43782D01*
X55680Y-43644D01*
X56112Y-43212D01*
X56112Y-43212D01*
X56177Y-43114D01*
X56199Y-43000D01*
X56200Y-43000D01*
X56200Y-42857D01*
X56286Y-42799D01*
X56404Y-42622D01*
X56446Y-42413D01*
X56446Y-41786D01*
X56404Y-41577D01*
X56286Y-41400D01*
X56109Y-41281D01*
X55900Y-41239D01*
X55690Y-41281D01*
X55513Y-41400D01*
X55395Y-41577D01*
X55394Y-41578D01*
X55385Y-41547D01*
X55251Y-41381D01*
X55062Y-41278D01*
X55034Y-41273D01*
X54950Y-41321D01*
X54950Y-42050D01*
X54957Y-42050D01*
X54957Y-42150D01*
X54950Y-42150D01*
X54950Y-42878D01*
X55034Y-42926D01*
X55062Y-42921D01*
X55251Y-42818D01*
X55385Y-42652D01*
X55394Y-42621D01*
X55395Y-42622D01*
X55513Y-42799D01*
X55600Y-42857D01*
X55600Y-42875D01*
X55167Y-43307D01*
X55102Y-43405D01*
X55080Y-43520D01*
X55080Y-43783D01*
X54950Y-43912D01*
X54879Y-44082D01*
X54850Y-44009D01*
X54850Y-42878D01*
X54850Y-42150D01*
X54850Y-42050D01*
X54850Y-41321D01*
X54765Y-41273D01*
X54737Y-41278D01*
X54548Y-41381D01*
X54414Y-41547D01*
X54353Y-41753D01*
X54353Y-42050D01*
X54850Y-42050D01*
X54850Y-42150D01*
X54353Y-42150D01*
X54353Y-42447D01*
X54414Y-42652D01*
X54548Y-42818D01*
X54737Y-42921D01*
X54765Y-42926D01*
X54850Y-42878D01*
X54850Y-44009D01*
X54810Y-43913D01*
X54667Y-43770D01*
X54481Y-43693D01*
X54279Y-43692D01*
X54146Y-43747D01*
X54146Y-42643D01*
X54146Y-41556D01*
X54146Y-41456D01*
X54108Y-41364D01*
X54037Y-41294D01*
X53946Y-41256D01*
X53712Y-41256D01*
X53650Y-41319D01*
X53650Y-42050D01*
X54084Y-42050D01*
X54146Y-41987D01*
X54146Y-41556D01*
X54146Y-42643D01*
X54146Y-42212D01*
X54084Y-42150D01*
X53650Y-42150D01*
X53650Y-42881D01*
X53712Y-42943D01*
X53946Y-42943D01*
X54037Y-42905D01*
X54108Y-42835D01*
X54146Y-42743D01*
X54146Y-42643D01*
X54146Y-43747D01*
X54093Y-43769D01*
X53950Y-43912D01*
X53879Y-44082D01*
X53810Y-43913D01*
X53667Y-43770D01*
X53481Y-43693D01*
X53279Y-43692D01*
X53093Y-43769D01*
X52962Y-43900D01*
X52842Y-43900D01*
X52700Y-43757D01*
X52700Y-43300D01*
X52699Y-43299D01*
X52677Y-43185D01*
X52612Y-43087D01*
X52612Y-43087D01*
X52455Y-42931D01*
X52600Y-42960D01*
X52809Y-42918D01*
X52986Y-42799D01*
X53053Y-42699D01*
X53053Y-42743D01*
X53091Y-42835D01*
X53162Y-42905D01*
X53253Y-42943D01*
X53487Y-42943D01*
X53550Y-42881D01*
X53550Y-42150D01*
X53542Y-42150D01*
X53542Y-42050D01*
X53550Y-42050D01*
X53550Y-41319D01*
X53487Y-41256D01*
X53253Y-41256D01*
X53162Y-41294D01*
X53091Y-41364D01*
X53053Y-41456D01*
X53053Y-41500D01*
X52986Y-41400D01*
X52809Y-41281D01*
X52600Y-41239D01*
X52390Y-41281D01*
X52213Y-41400D01*
X52100Y-41570D01*
X51986Y-41400D01*
X51809Y-41281D01*
X51600Y-41239D01*
X51390Y-41281D01*
X51213Y-41400D01*
X51095Y-41577D01*
X51053Y-41786D01*
X51053Y-42413D01*
X51095Y-42622D01*
X51213Y-42799D01*
X51390Y-42918D01*
X51600Y-42960D01*
X51629Y-42954D01*
X52100Y-43424D01*
X52100Y-43757D01*
X51955Y-43902D01*
X51875Y-44095D01*
X51874Y-44303D01*
X51954Y-44497D01*
X52102Y-44644D01*
X52295Y-44724D01*
X52503Y-44725D01*
X52697Y-44645D01*
X52842Y-44500D01*
X52963Y-44500D01*
X53092Y-44629D01*
X53278Y-44706D01*
X53480Y-44707D01*
X53666Y-44630D01*
X53809Y-44487D01*
X53880Y-44317D01*
X53949Y-44486D01*
X54092Y-44629D01*
X54278Y-44706D01*
X54480Y-44707D01*
X54666Y-44630D01*
X54809Y-44487D01*
X54880Y-44317D01*
X54949Y-44486D01*
X55092Y-44629D01*
X55278Y-44706D01*
X55448Y-44707D01*
X54967Y-45187D01*
X54902Y-45285D01*
X54880Y-45400D01*
X54880Y-46910D01*
X54902Y-47024D01*
X54967Y-47122D01*
X55137Y-47292D01*
X55137Y-47292D01*
X55235Y-47357D01*
X55323Y-47374D01*
X55324Y-47377D01*
X55472Y-47524D01*
X55665Y-47604D01*
X55873Y-47605D01*
X56067Y-47525D01*
X56214Y-47377D01*
X56294Y-47184D01*
X56295Y-46976D01*
X56215Y-46783D01*
X56067Y-46635D01*
X55874Y-46555D01*
X55666Y-46554D01*
X55480Y-46631D01*
X55480Y-46172D01*
X55552Y-46244D01*
X55745Y-46324D01*
X55953Y-46325D01*
X56147Y-46245D01*
X56292Y-46100D01*
X56740Y-46100D01*
X56740Y-46099D01*
X56854Y-46077D01*
X56854Y-46077D01*
X56952Y-46012D01*
X57592Y-45372D01*
X57592Y-45372D01*
X57600Y-45360D01*
X57600Y-46210D01*
X57622Y-46324D01*
X57687Y-46422D01*
X58245Y-46979D01*
X58244Y-47183D01*
X58324Y-47377D01*
X58472Y-47524D01*
X58665Y-47604D01*
X58873Y-47605D01*
X59067Y-47525D01*
X59214Y-47377D01*
X59294Y-47184D01*
X59295Y-46976D01*
X59215Y-46783D01*
X59067Y-46635D01*
X58874Y-46555D01*
X58669Y-46554D01*
X58200Y-46085D01*
X58200Y-44674D01*
X58278Y-44706D01*
X58480Y-44707D01*
X58600Y-44657D01*
X58600Y-45335D01*
X58553Y-45354D01*
X58405Y-45502D01*
X58325Y-45695D01*
X58324Y-45903D01*
X58404Y-46097D01*
X58552Y-46244D01*
X58745Y-46324D01*
X58953Y-46325D01*
X59147Y-46245D01*
X59294Y-46097D01*
X59374Y-45904D01*
X59375Y-45696D01*
X59295Y-45503D01*
X59200Y-45407D01*
X59200Y-44674D01*
X59278Y-44706D01*
X59462Y-44707D01*
X59610Y-44854D01*
X59610Y-46450D01*
X59632Y-46564D01*
X59676Y-46630D01*
X59675Y-46632D01*
X59595Y-46825D01*
X59594Y-47033D01*
X59674Y-47227D01*
X59822Y-47374D01*
X60015Y-47454D01*
X60223Y-47455D01*
X60417Y-47375D01*
X60564Y-47227D01*
X60644Y-47034D01*
X60645Y-46826D01*
X60565Y-46633D01*
X60417Y-46485D01*
X60333Y-46450D01*
X60333Y-46450D01*
X60332Y-46447D01*
X60332Y-46447D01*
X60210Y-46325D01*
X60210Y-45823D01*
X60244Y-45907D01*
X60392Y-46054D01*
X60585Y-46134D01*
X60793Y-46135D01*
X60987Y-46055D01*
X61000Y-46042D01*
X61000Y-47498D01*
X60939Y-47558D01*
X60875Y-47715D01*
X60874Y-47884D01*
X60939Y-48040D01*
X61058Y-48160D01*
X61215Y-48224D01*
X61384Y-48225D01*
X61540Y-48160D01*
X61660Y-48041D01*
X61724Y-47884D01*
X61725Y-47715D01*
X61660Y-47559D01*
X61600Y-47498D01*
X61600Y-45200D01*
X61599Y-45199D01*
X61577Y-45085D01*
X61512Y-44987D01*
X61512Y-44987D01*
X61200Y-44675D01*
X61200Y-44674D01*
X61278Y-44706D01*
X61480Y-44707D01*
X61666Y-44630D01*
X61809Y-44487D01*
X61880Y-44317D01*
X61949Y-44486D01*
X62092Y-44629D01*
X62278Y-44706D01*
X62480Y-44707D01*
X62666Y-44630D01*
X62809Y-44487D01*
X62880Y-44317D01*
X62949Y-44486D01*
X63092Y-44629D01*
X63278Y-44706D01*
X63480Y-44707D01*
X63600Y-44657D01*
X63600Y-44875D01*
X63477Y-44997D01*
X63412Y-45095D01*
X63399Y-45161D01*
X63393Y-45164D01*
X63245Y-45312D01*
X63165Y-45505D01*
X63164Y-45713D01*
X63244Y-45907D01*
X63392Y-46054D01*
X63585Y-46134D01*
X63793Y-46135D01*
X63987Y-46055D01*
X64134Y-45907D01*
X64214Y-45714D01*
X64215Y-45506D01*
X64135Y-45313D01*
X64073Y-45250D01*
X64112Y-45212D01*
X64112Y-45212D01*
X64177Y-45114D01*
X64199Y-45000D01*
X64200Y-45000D01*
X64200Y-44674D01*
X64278Y-44706D01*
X64480Y-44707D01*
X64666Y-44630D01*
X64809Y-44487D01*
X64886Y-44301D01*
X64887Y-44099D01*
X64810Y-43913D01*
X64667Y-43770D01*
X64481Y-43693D01*
X64279Y-43692D01*
X64200Y-43725D01*
X64200Y-43724D01*
X64524Y-43400D01*
X65100Y-43400D01*
X65100Y-43399D01*
X65214Y-43377D01*
X65214Y-43377D01*
X65312Y-43312D01*
X65612Y-43012D01*
X65612Y-43012D01*
X65677Y-42914D01*
X65686Y-42866D01*
X65786Y-42799D01*
X65904Y-42622D01*
X65937Y-42461D01*
X66087Y-42612D01*
X66087Y-42612D01*
X66185Y-42677D01*
X66299Y-42699D01*
X66300Y-42700D01*
X66457Y-42700D01*
X66602Y-42844D01*
X66735Y-42900D01*
X66603Y-42954D01*
X66455Y-43102D01*
X66375Y-43295D01*
X66374Y-43503D01*
X66454Y-43697D01*
X66602Y-43844D01*
X66795Y-43924D01*
X67003Y-43925D01*
X67197Y-43845D01*
X67344Y-43697D01*
X67424Y-43504D01*
X67425Y-43296D01*
X67425Y-44348D01*
X67251Y-44174D01*
X67023Y-44080D01*
X66777Y-44079D01*
X66549Y-44174D01*
X66374Y-44348D01*
X66280Y-44576D01*
X66279Y-44822D01*
X66374Y-45050D01*
X66523Y-45200D01*
X66374Y-45348D01*
X66353Y-45400D01*
X65796Y-45400D01*
X65667Y-45270D01*
X65497Y-45199D01*
X65666Y-45130D01*
X65809Y-44987D01*
X65886Y-44801D01*
X65887Y-44599D01*
X65810Y-44413D01*
X65667Y-44270D01*
X65481Y-44193D01*
X65279Y-44192D01*
X65093Y-44269D01*
X64950Y-44412D01*
X64873Y-44598D01*
X64872Y-44800D01*
X64949Y-44986D01*
X65092Y-45129D01*
X65262Y-45200D01*
X65093Y-45269D01*
X64950Y-45412D01*
X64873Y-45598D01*
X64872Y-45800D01*
X64949Y-45986D01*
X65092Y-46129D01*
X65259Y-46199D01*
X65250Y-46199D01*
X65118Y-46254D01*
X65095Y-46345D01*
X65380Y-46629D01*
X65664Y-46345D01*
X65641Y-46254D01*
X65492Y-46202D01*
X65666Y-46130D01*
X65797Y-46000D01*
X66353Y-46000D01*
X66374Y-46050D01*
X66547Y-46224D01*
X66534Y-46263D01*
X66900Y-46629D01*
X67265Y-46263D01*
X67252Y-46224D01*
X67425Y-46051D01*
X67519Y-45823D01*
X67520Y-45577D01*
X67520Y-46690D01*
X67514Y-46552D01*
X67439Y-46370D01*
X67336Y-46334D01*
X66970Y-46700D01*
X67336Y-47065D01*
X67439Y-47029D01*
X67524Y-46798D01*
X67524Y-54330D01*
X67520Y-54330D01*
X67520Y-49577D01*
X67425Y-49349D01*
X67276Y-49199D01*
X67425Y-49051D01*
X67519Y-48823D01*
X67520Y-48577D01*
X67425Y-48349D01*
X67276Y-48199D01*
X67425Y-48051D01*
X67519Y-47823D01*
X67520Y-47577D01*
X67425Y-47349D01*
X67252Y-47175D01*
X67265Y-47136D01*
X66900Y-46770D01*
X66829Y-46841D01*
X66829Y-46700D01*
X66463Y-46334D01*
X66360Y-46370D01*
X66275Y-46601D01*
X66285Y-46847D01*
X66360Y-47029D01*
X66463Y-47065D01*
X66829Y-46700D01*
X66829Y-46841D01*
X66534Y-47136D01*
X66547Y-47175D01*
X66374Y-47348D01*
X66353Y-47400D01*
X65891Y-47400D01*
X65891Y-46771D01*
X65880Y-46570D01*
X65825Y-46438D01*
X65734Y-46415D01*
X65450Y-46700D01*
X65734Y-46984D01*
X65825Y-46961D01*
X65891Y-46771D01*
X65891Y-47400D01*
X65796Y-47400D01*
X65667Y-47270D01*
X65500Y-47200D01*
X65509Y-47200D01*
X65641Y-47145D01*
X65664Y-47054D01*
X65380Y-46770D01*
X65309Y-46841D01*
X65309Y-46700D01*
X65025Y-46415D01*
X64934Y-46438D01*
X64868Y-46628D01*
X64879Y-46829D01*
X64934Y-46961D01*
X65025Y-46984D01*
X65309Y-46700D01*
X65309Y-46841D01*
X65095Y-47054D01*
X65118Y-47145D01*
X65267Y-47197D01*
X65093Y-47269D01*
X64950Y-47412D01*
X64873Y-47598D01*
X64872Y-47800D01*
X64949Y-47986D01*
X65092Y-48129D01*
X65262Y-48200D01*
X65093Y-48269D01*
X64950Y-48412D01*
X64873Y-48598D01*
X64872Y-48800D01*
X64949Y-48986D01*
X65092Y-49129D01*
X65262Y-49200D01*
X65093Y-49269D01*
X64950Y-49412D01*
X64873Y-49598D01*
X64872Y-49800D01*
X64949Y-49986D01*
X65092Y-50129D01*
X65278Y-50206D01*
X65480Y-50207D01*
X65666Y-50130D01*
X65797Y-50000D01*
X66353Y-50000D01*
X66374Y-50050D01*
X66548Y-50225D01*
X66776Y-50319D01*
X67022Y-50320D01*
X67250Y-50225D01*
X67425Y-50051D01*
X67519Y-49823D01*
X67520Y-49577D01*
X67520Y-54330D01*
X67446Y-54330D01*
X67446Y-52513D01*
X67446Y-51886D01*
X67404Y-51677D01*
X67286Y-51500D01*
X67186Y-51433D01*
X67177Y-51385D01*
X67112Y-51287D01*
X67112Y-51287D01*
X66612Y-50787D01*
X66514Y-50722D01*
X66400Y-50700D01*
X64497Y-50700D01*
X64666Y-50630D01*
X64809Y-50487D01*
X64886Y-50301D01*
X64887Y-50099D01*
X64810Y-49913D01*
X64667Y-49770D01*
X64481Y-49693D01*
X64279Y-49692D01*
X64093Y-49769D01*
X63950Y-49912D01*
X63879Y-50082D01*
X63810Y-49913D01*
X63667Y-49770D01*
X63645Y-49761D01*
X63645Y-46826D01*
X63565Y-46633D01*
X63417Y-46485D01*
X63224Y-46405D01*
X63016Y-46404D01*
X62823Y-46484D01*
X62675Y-46632D01*
X62595Y-46825D01*
X62594Y-47033D01*
X62674Y-47227D01*
X62822Y-47374D01*
X63015Y-47454D01*
X63223Y-47455D01*
X63417Y-47375D01*
X63564Y-47227D01*
X63644Y-47034D01*
X63645Y-46826D01*
X63645Y-49761D01*
X63481Y-49693D01*
X63279Y-49692D01*
X63093Y-49769D01*
X62950Y-49912D01*
X62879Y-50082D01*
X62810Y-49913D01*
X62667Y-49770D01*
X62481Y-49693D01*
X62279Y-49692D01*
X62093Y-49769D01*
X61950Y-49912D01*
X61880Y-50079D01*
X61880Y-50070D01*
X61825Y-49938D01*
X61734Y-49915D01*
X61664Y-49986D01*
X61664Y-49845D01*
X61641Y-49754D01*
X61451Y-49688D01*
X61387Y-49691D01*
X61387Y-49099D01*
X61310Y-48913D01*
X61167Y-48770D01*
X61157Y-48766D01*
X61157Y-48765D01*
X61092Y-48667D01*
X60612Y-48187D01*
X60514Y-48122D01*
X60400Y-48100D01*
X53524Y-48100D01*
X52712Y-47287D01*
X52614Y-47222D01*
X52500Y-47200D01*
X51557Y-47200D01*
X51499Y-47113D01*
X51329Y-47000D01*
X51499Y-46886D01*
X51618Y-46709D01*
X51660Y-46500D01*
X51618Y-46290D01*
X51499Y-46113D01*
X51329Y-46000D01*
X51499Y-45886D01*
X51618Y-45709D01*
X51660Y-45500D01*
X51618Y-45290D01*
X51499Y-45113D01*
X51322Y-44995D01*
X51113Y-44953D01*
X50746Y-44953D01*
X50746Y-42643D01*
X50746Y-41556D01*
X50746Y-41456D01*
X50708Y-41364D01*
X50637Y-41294D01*
X50546Y-41256D01*
X50312Y-41256D01*
X50250Y-41319D01*
X50250Y-42050D01*
X50684Y-42050D01*
X50746Y-41987D01*
X50746Y-41556D01*
X50746Y-42643D01*
X50746Y-42212D01*
X50684Y-42150D01*
X50250Y-42150D01*
X50250Y-42881D01*
X50312Y-42943D01*
X50546Y-42943D01*
X50637Y-42905D01*
X50708Y-42835D01*
X50746Y-42743D01*
X50746Y-42643D01*
X50746Y-44953D01*
X50486Y-44953D01*
X50277Y-44995D01*
X50150Y-45080D01*
X50150Y-42881D01*
X50150Y-42150D01*
X50142Y-42150D01*
X50142Y-42050D01*
X50150Y-42050D01*
X50150Y-41319D01*
X50087Y-41256D01*
X49853Y-41256D01*
X49762Y-41294D01*
X49691Y-41364D01*
X49653Y-41456D01*
X49653Y-41500D01*
X49586Y-41400D01*
X49409Y-41281D01*
X49200Y-41239D01*
X48990Y-41281D01*
X48813Y-41400D01*
X48695Y-41577D01*
X48653Y-41786D01*
X48653Y-42413D01*
X48695Y-42622D01*
X48813Y-42799D01*
X48990Y-42918D01*
X49200Y-42960D01*
X49409Y-42918D01*
X49586Y-42799D01*
X49653Y-42699D01*
X49653Y-42743D01*
X49691Y-42835D01*
X49762Y-42905D01*
X49853Y-42943D01*
X50087Y-42943D01*
X50150Y-42881D01*
X50150Y-45080D01*
X50100Y-45113D01*
X49981Y-45290D01*
X49939Y-45500D01*
X49981Y-45709D01*
X50100Y-45886D01*
X50270Y-46000D01*
X50100Y-46113D01*
X49981Y-46290D01*
X49939Y-46500D01*
X49981Y-46709D01*
X50100Y-46886D01*
X50270Y-47000D01*
X50100Y-47113D01*
X49981Y-47290D01*
X49939Y-47500D01*
X49981Y-47709D01*
X50100Y-47886D01*
X50270Y-48000D01*
X50100Y-48113D01*
X49981Y-48290D01*
X49939Y-48500D01*
X49981Y-48709D01*
X50100Y-48886D01*
X50277Y-49004D01*
X50278Y-49005D01*
X50247Y-49014D01*
X50081Y-49148D01*
X49978Y-49337D01*
X49973Y-49365D01*
X50021Y-49450D01*
X50750Y-49450D01*
X50750Y-49442D01*
X50850Y-49442D01*
X50850Y-49450D01*
X51578Y-49450D01*
X51626Y-49365D01*
X51621Y-49337D01*
X51518Y-49148D01*
X51352Y-49014D01*
X51321Y-49005D01*
X51322Y-49004D01*
X51499Y-48886D01*
X51557Y-48800D01*
X52375Y-48800D01*
X52987Y-49412D01*
X52987Y-49412D01*
X53085Y-49477D01*
X53199Y-49499D01*
X53200Y-49500D01*
X59463Y-49500D01*
X59592Y-49629D01*
X59778Y-49706D01*
X59980Y-49707D01*
X60166Y-49630D01*
X60309Y-49487D01*
X60380Y-49317D01*
X60449Y-49486D01*
X60592Y-49629D01*
X60778Y-49706D01*
X60980Y-49707D01*
X61166Y-49630D01*
X61309Y-49487D01*
X61386Y-49301D01*
X61387Y-49099D01*
X61387Y-49691D01*
X61250Y-49699D01*
X61118Y-49754D01*
X61095Y-49845D01*
X61380Y-50129D01*
X61664Y-49845D01*
X61664Y-49986D01*
X61450Y-50200D01*
X61734Y-50484D01*
X61825Y-50461D01*
X61877Y-50312D01*
X61949Y-50486D01*
X62092Y-50629D01*
X62262Y-50700D01*
X61510Y-50700D01*
X61641Y-50645D01*
X61664Y-50554D01*
X61380Y-50270D01*
X61374Y-50276D01*
X61303Y-50205D01*
X61309Y-50200D01*
X61025Y-49915D01*
X60934Y-49938D01*
X60882Y-50087D01*
X60810Y-49913D01*
X60667Y-49770D01*
X60481Y-49693D01*
X60279Y-49692D01*
X60093Y-49769D01*
X59950Y-49912D01*
X59879Y-50082D01*
X59810Y-49913D01*
X59667Y-49770D01*
X59481Y-49693D01*
X59279Y-49692D01*
X59093Y-49769D01*
X58950Y-49912D01*
X58879Y-50082D01*
X58810Y-49913D01*
X58667Y-49770D01*
X58481Y-49693D01*
X58279Y-49692D01*
X58093Y-49769D01*
X57950Y-49912D01*
X57879Y-50082D01*
X57810Y-49913D01*
X57667Y-49770D01*
X57481Y-49693D01*
X57279Y-49692D01*
X57093Y-49769D01*
X56950Y-49912D01*
X56879Y-50082D01*
X56810Y-49913D01*
X56667Y-49770D01*
X56481Y-49693D01*
X56279Y-49692D01*
X56093Y-49769D01*
X55950Y-49912D01*
X55879Y-50082D01*
X55810Y-49913D01*
X55667Y-49770D01*
X55481Y-49693D01*
X55279Y-49692D01*
X55093Y-49769D01*
X54950Y-49912D01*
X54879Y-50082D01*
X54810Y-49913D01*
X54667Y-49770D01*
X54481Y-49693D01*
X54279Y-49692D01*
X54093Y-49769D01*
X53950Y-49912D01*
X53879Y-50082D01*
X53810Y-49913D01*
X53667Y-49770D01*
X53481Y-49693D01*
X53279Y-49692D01*
X53093Y-49769D01*
X52950Y-49912D01*
X52873Y-50098D01*
X52872Y-50300D01*
X52949Y-50486D01*
X53092Y-50629D01*
X53262Y-50700D01*
X52500Y-50700D01*
X52385Y-50722D01*
X52287Y-50787D01*
X51818Y-51257D01*
X51809Y-51253D01*
X51660Y-51253D01*
X51660Y-50500D01*
X51618Y-50290D01*
X51499Y-50113D01*
X51322Y-49995D01*
X51321Y-49994D01*
X51352Y-49985D01*
X51518Y-49851D01*
X51621Y-49662D01*
X51626Y-49634D01*
X51578Y-49550D01*
X50850Y-49550D01*
X50850Y-49557D01*
X50750Y-49557D01*
X50750Y-49550D01*
X50021Y-49550D01*
X49973Y-49634D01*
X49978Y-49662D01*
X50081Y-49851D01*
X50247Y-49985D01*
X50278Y-49994D01*
X50277Y-49995D01*
X50100Y-50113D01*
X49981Y-50290D01*
X49939Y-50500D01*
X49981Y-50709D01*
X50100Y-50886D01*
X50277Y-51004D01*
X50486Y-51046D01*
X51113Y-51046D01*
X51322Y-51004D01*
X51499Y-50886D01*
X51618Y-50709D01*
X51660Y-50500D01*
X51660Y-51253D01*
X51591Y-51253D01*
X51390Y-51336D01*
X51236Y-51490D01*
X51200Y-51579D01*
X51163Y-51490D01*
X51009Y-51336D01*
X50809Y-51253D01*
X50591Y-51253D01*
X50390Y-51336D01*
X50236Y-51490D01*
X50200Y-51579D01*
X50163Y-51490D01*
X50009Y-51336D01*
X49929Y-51303D01*
X49929Y-44275D01*
X49918Y-44067D01*
X49860Y-43927D01*
X49767Y-43902D01*
X49697Y-43973D01*
X49697Y-43832D01*
X49672Y-43739D01*
X49475Y-43670D01*
X49267Y-43681D01*
X49127Y-43739D01*
X49102Y-43832D01*
X49400Y-44129D01*
X49697Y-43832D01*
X49697Y-43973D01*
X49470Y-44200D01*
X49767Y-44497D01*
X49860Y-44472D01*
X49929Y-44275D01*
X49929Y-51303D01*
X49809Y-51253D01*
X49697Y-51253D01*
X49697Y-44567D01*
X49400Y-44270D01*
X49329Y-44341D01*
X49329Y-44200D01*
X49032Y-43902D01*
X48939Y-43927D01*
X48870Y-44124D01*
X48881Y-44332D01*
X48939Y-44472D01*
X49032Y-44497D01*
X49329Y-44200D01*
X49329Y-44341D01*
X49102Y-44567D01*
X49127Y-44660D01*
X49324Y-44729D01*
X49532Y-44718D01*
X49672Y-44660D01*
X49697Y-44567D01*
X49697Y-51253D01*
X49591Y-51253D01*
X49390Y-51336D01*
X49236Y-51490D01*
X49153Y-51690D01*
X49153Y-51908D01*
X49236Y-52109D01*
X49390Y-52263D01*
X49590Y-52346D01*
X49808Y-52346D01*
X50009Y-52263D01*
X50163Y-52109D01*
X50199Y-52020D01*
X50236Y-52109D01*
X50390Y-52263D01*
X50590Y-52346D01*
X50808Y-52346D01*
X51009Y-52263D01*
X51163Y-52109D01*
X51199Y-52020D01*
X51236Y-52109D01*
X51390Y-52263D01*
X51590Y-52346D01*
X51808Y-52346D01*
X52009Y-52263D01*
X52163Y-52109D01*
X52199Y-52020D01*
X52236Y-52109D01*
X52390Y-52263D01*
X52590Y-52346D01*
X52808Y-52346D01*
X53009Y-52263D01*
X53163Y-52109D01*
X53199Y-52020D01*
X53236Y-52109D01*
X53390Y-52263D01*
X53590Y-52346D01*
X53808Y-52346D01*
X54009Y-52263D01*
X54163Y-52109D01*
X54199Y-52020D01*
X54236Y-52109D01*
X54390Y-52263D01*
X54590Y-52346D01*
X54808Y-52346D01*
X55009Y-52263D01*
X55163Y-52109D01*
X55199Y-52020D01*
X55236Y-52109D01*
X55390Y-52263D01*
X55590Y-52346D01*
X55808Y-52346D01*
X56009Y-52263D01*
X56153Y-52119D01*
X56153Y-52146D01*
X56191Y-52238D01*
X56262Y-52308D01*
X56353Y-52346D01*
X56587Y-52346D01*
X56650Y-52284D01*
X56650Y-51850D01*
X56642Y-51850D01*
X56642Y-51750D01*
X56650Y-51750D01*
X56650Y-51316D01*
X56587Y-51253D01*
X56353Y-51253D01*
X56262Y-51291D01*
X56191Y-51361D01*
X56153Y-51453D01*
X56153Y-51480D01*
X56009Y-51336D01*
X55809Y-51253D01*
X55730Y-51253D01*
X55792Y-51212D01*
X56297Y-50706D01*
X56480Y-50707D01*
X56666Y-50630D01*
X56809Y-50487D01*
X56880Y-50317D01*
X56949Y-50486D01*
X57092Y-50629D01*
X57278Y-50706D01*
X57480Y-50707D01*
X57666Y-50630D01*
X57809Y-50487D01*
X57880Y-50317D01*
X57949Y-50486D01*
X58092Y-50629D01*
X58200Y-50674D01*
X58200Y-51442D01*
X58113Y-51500D01*
X57995Y-51677D01*
X57953Y-51886D01*
X57953Y-52513D01*
X57995Y-52722D01*
X58113Y-52899D01*
X58290Y-53018D01*
X58500Y-53060D01*
X58709Y-53018D01*
X58886Y-52899D01*
X59000Y-52729D01*
X59113Y-52899D01*
X59290Y-53018D01*
X59500Y-53060D01*
X59709Y-53018D01*
X59886Y-52899D01*
X60004Y-52722D01*
X60046Y-52513D01*
X60046Y-51886D01*
X60004Y-51677D01*
X59886Y-51500D01*
X59709Y-51381D01*
X59500Y-51339D01*
X59290Y-51381D01*
X59113Y-51500D01*
X59000Y-51670D01*
X58886Y-51500D01*
X58800Y-51442D01*
X58800Y-50497D01*
X58809Y-50487D01*
X58880Y-50317D01*
X58949Y-50486D01*
X59092Y-50629D01*
X59278Y-50706D01*
X59462Y-50707D01*
X60267Y-51512D01*
X60267Y-51512D01*
X60365Y-51577D01*
X60480Y-51600D01*
X60653Y-51600D01*
X60653Y-51656D01*
X60653Y-52087D01*
X60716Y-52150D01*
X61150Y-52150D01*
X61150Y-52142D01*
X61250Y-52142D01*
X61250Y-52150D01*
X61257Y-52150D01*
X61257Y-52250D01*
X61250Y-52250D01*
X61250Y-52981D01*
X61312Y-53043D01*
X61546Y-53043D01*
X61637Y-53005D01*
X61708Y-52935D01*
X61746Y-52843D01*
X61746Y-52799D01*
X61813Y-52899D01*
X61990Y-53018D01*
X62200Y-53060D01*
X62409Y-53018D01*
X62586Y-52899D01*
X62700Y-52729D01*
X62813Y-52899D01*
X62990Y-53018D01*
X63200Y-53060D01*
X63409Y-53018D01*
X63586Y-52899D01*
X63704Y-52722D01*
X63746Y-52513D01*
X63746Y-51886D01*
X63704Y-51677D01*
X63586Y-51500D01*
X63409Y-51381D01*
X63405Y-51380D01*
X63324Y-51300D01*
X66275Y-51300D01*
X66498Y-51522D01*
X66400Y-51670D01*
X66286Y-51500D01*
X66109Y-51381D01*
X65900Y-51339D01*
X65690Y-51381D01*
X65513Y-51500D01*
X65446Y-51600D01*
X65446Y-51556D01*
X65408Y-51464D01*
X65337Y-51394D01*
X65246Y-51356D01*
X65012Y-51356D01*
X64950Y-51419D01*
X64950Y-52150D01*
X64957Y-52150D01*
X64957Y-52250D01*
X64950Y-52250D01*
X64950Y-52981D01*
X65012Y-53043D01*
X65246Y-53043D01*
X65337Y-53005D01*
X65408Y-52935D01*
X65446Y-52843D01*
X65446Y-52799D01*
X65513Y-52899D01*
X65690Y-53018D01*
X65900Y-53060D01*
X66109Y-53018D01*
X66286Y-52899D01*
X66400Y-52729D01*
X66513Y-52899D01*
X66690Y-53018D01*
X66900Y-53060D01*
X67109Y-53018D01*
X67286Y-52899D01*
X67404Y-52722D01*
X67446Y-52513D01*
X67446Y-54330D01*
X64850Y-54330D01*
X64850Y-52981D01*
X64850Y-52250D01*
X64850Y-52150D01*
X64850Y-51419D01*
X64787Y-51356D01*
X64553Y-51356D01*
X64462Y-51394D01*
X64391Y-51464D01*
X64353Y-51556D01*
X64353Y-51656D01*
X64353Y-52087D01*
X64416Y-52150D01*
X64850Y-52150D01*
X64850Y-52250D01*
X64416Y-52250D01*
X64353Y-52312D01*
X64353Y-52743D01*
X64353Y-52843D01*
X64391Y-52935D01*
X64462Y-53005D01*
X64553Y-53043D01*
X64787Y-53043D01*
X64850Y-52981D01*
X64850Y-54330D01*
X61150Y-54330D01*
X61150Y-52981D01*
X61150Y-52250D01*
X60716Y-52250D01*
X60653Y-52312D01*
X60653Y-52743D01*
X60653Y-52843D01*
X60691Y-52935D01*
X60762Y-53005D01*
X60853Y-53043D01*
X61087Y-53043D01*
X61150Y-52981D01*
X61150Y-54330D01*
X57246Y-54330D01*
X57246Y-52046D01*
X57246Y-51553D01*
X57246Y-51453D01*
X57208Y-51361D01*
X57137Y-51291D01*
X57046Y-51253D01*
X56812Y-51253D01*
X56750Y-51316D01*
X56750Y-51750D01*
X57184Y-51750D01*
X57246Y-51687D01*
X57246Y-51553D01*
X57246Y-52046D01*
X57246Y-51912D01*
X57184Y-51850D01*
X56750Y-51850D01*
X56750Y-52284D01*
X56812Y-52346D01*
X57046Y-52346D01*
X57137Y-52308D01*
X57208Y-52238D01*
X57246Y-52146D01*
X57246Y-52046D01*
X57246Y-54330D01*
X48592Y-54330D01*
X48648Y-54274D01*
X48648Y-54273D01*
X48777Y-54080D01*
X48778Y-54079D01*
X48818Y-53982D01*
X48864Y-53752D01*
X48864Y-53752D01*
X48864Y-53752D01*
X48864Y-53700D01*
X48864Y-53647D01*
X48864Y-53647D01*
X48864Y-53647D01*
X48818Y-53417D01*
X48778Y-53320D01*
X48777Y-53319D01*
X48648Y-53126D01*
X48648Y-53125D01*
X48574Y-53051D01*
X48379Y-52921D01*
X48281Y-52881D01*
X48280Y-52881D01*
X48053Y-52835D01*
X48052Y-52835D01*
X47947Y-52835D01*
X47717Y-52881D01*
X47620Y-52921D01*
X47619Y-52922D01*
X47426Y-53051D01*
X47425Y-53051D01*
X47351Y-53125D01*
X47269Y-53248D01*
X47269Y-39469D01*
X67748Y-39469D01*
X67626Y-39551D01*
X67625Y-39551D01*
X67551Y-39625D01*
X67421Y-39820D01*
X67381Y-39918D01*
X67381Y-39919D01*
X67335Y-40147D01*
X67335Y-40147D01*
X67335Y-40147D01*
X67335Y-40200D01*
X67335Y-40252D01*
X67335Y-40252D01*
X67335Y-40252D01*
X67381Y-40480D01*
X67381Y-40481D01*
X67421Y-40579D01*
X67551Y-40774D01*
X67625Y-40848D01*
X67626Y-40848D01*
X67819Y-40977D01*
X67820Y-40978D01*
X67917Y-41018D01*
X68147Y-41064D01*
X68252Y-41064D01*
X68253Y-41064D01*
X68480Y-41018D01*
X68481Y-41018D01*
X68579Y-40978D01*
X68774Y-40848D01*
X68848Y-40774D01*
X68848Y-40773D01*
X68950Y-40621D01*
X68950Y-54330D01*
X68950Y-54330D01*
G37*
G54D20*
X68950Y-54330D02*
X67524Y-54330D01*
X67524Y-46798D01*
X67520Y-46690D01*
X67520Y-45577D01*
X67425Y-45349D01*
X67276Y-45199D01*
X67425Y-45051D01*
X67519Y-44823D01*
X67520Y-44577D01*
X67425Y-44349D01*
X67425Y-44348D01*
X67425Y-43296D01*
X67345Y-43103D01*
X67197Y-42955D01*
X67064Y-42899D01*
X67197Y-42845D01*
X67344Y-42697D01*
X67424Y-42504D01*
X67425Y-42296D01*
X67345Y-42103D01*
X67197Y-41955D01*
X67004Y-41875D01*
X66796Y-41874D01*
X66603Y-41954D01*
X66457Y-42100D01*
X66424Y-42100D01*
X66212Y-41887D01*
X66114Y-41822D01*
X66000Y-41800D01*
X65946Y-41800D01*
X65946Y-41786D01*
X65904Y-41577D01*
X65786Y-41400D01*
X65609Y-41281D01*
X65400Y-41239D01*
X65190Y-41281D01*
X65013Y-41400D01*
X64900Y-41570D01*
X64786Y-41400D01*
X64609Y-41281D01*
X64400Y-41239D01*
X64190Y-41281D01*
X64013Y-41400D01*
X63900Y-41570D01*
X63786Y-41400D01*
X63609Y-41281D01*
X63400Y-41239D01*
X63190Y-41281D01*
X63013Y-41400D01*
X62900Y-41570D01*
X62786Y-41400D01*
X62609Y-41281D01*
X62400Y-41239D01*
X62190Y-41281D01*
X62013Y-41400D01*
X61900Y-41570D01*
X61786Y-41400D01*
X61609Y-41281D01*
X61400Y-41239D01*
X61190Y-41281D01*
X61013Y-41400D01*
X60895Y-41577D01*
X60894Y-41578D01*
X60885Y-41547D01*
X60751Y-41381D01*
X60562Y-41278D01*
X60534Y-41273D01*
X60450Y-41321D01*
X60450Y-42050D01*
X60457Y-42050D01*
X60457Y-42150D01*
X60450Y-42150D01*
X60450Y-42878D01*
X60534Y-42926D01*
X60562Y-42921D01*
X60751Y-42818D01*
X60885Y-42652D01*
X60894Y-42621D01*
X60895Y-42622D01*
X60998Y-42777D01*
X60687Y-43087D01*
X60622Y-43185D01*
X60600Y-43300D01*
X60600Y-43742D01*
X60481Y-43693D01*
X60279Y-43692D01*
X60093Y-43769D01*
X59950Y-43912D01*
X59879Y-44082D01*
X59810Y-43913D01*
X59667Y-43770D01*
X59481Y-43693D01*
X59279Y-43692D01*
X59200Y-43725D01*
X59200Y-43724D01*
X59593Y-43331D01*
X59593Y-43331D01*
X59658Y-43233D01*
X59680Y-43119D01*
X59681Y-43119D01*
X59681Y-42567D01*
X59690Y-42563D01*
X59844Y-42409D01*
X59853Y-42387D01*
X59853Y-42447D01*
X59914Y-42652D01*
X60048Y-42818D01*
X60237Y-42921D01*
X60265Y-42926D01*
X60350Y-42878D01*
X60350Y-42150D01*
X60342Y-42150D01*
X60342Y-42050D01*
X60350Y-42050D01*
X60350Y-41321D01*
X60265Y-41273D01*
X60237Y-41278D01*
X60048Y-41381D01*
X59914Y-41547D01*
X59853Y-41753D01*
X59853Y-41812D01*
X59844Y-41790D01*
X59690Y-41636D01*
X59490Y-41553D01*
X59272Y-41553D01*
X59071Y-41636D01*
X58986Y-41721D01*
X58902Y-41636D01*
X58702Y-41553D01*
X58484Y-41553D01*
X58283Y-41636D01*
X58199Y-41720D01*
X58116Y-41636D01*
X57916Y-41553D01*
X57698Y-41553D01*
X57497Y-41636D01*
X57412Y-41721D01*
X57328Y-41636D01*
X57128Y-41553D01*
X56910Y-41553D01*
X56709Y-41636D01*
X56555Y-41790D01*
X56472Y-41990D01*
X56472Y-42208D01*
X56555Y-42409D01*
X56709Y-42563D01*
X56909Y-42646D01*
X57127Y-42646D01*
X57328Y-42563D01*
X57413Y-42478D01*
X57497Y-42563D01*
X57697Y-42646D01*
X57915Y-42646D01*
X57938Y-42636D01*
X57687Y-42887D01*
X57622Y-42985D01*
X57600Y-43100D01*
X57600Y-43742D01*
X57481Y-43693D01*
X57279Y-43692D01*
X57093Y-43769D01*
X56950Y-43912D01*
X56879Y-44082D01*
X56810Y-43913D01*
X56667Y-43770D01*
X56481Y-43693D01*
X56279Y-43692D01*
X56093Y-43769D01*
X55950Y-43912D01*
X55879Y-44082D01*
X55810Y-43913D01*
X55680Y-43782D01*
X55680Y-43644D01*
X56112Y-43212D01*
X56112Y-43212D01*
X56177Y-43114D01*
X56199Y-43000D01*
X56200Y-43000D01*
X56200Y-42857D01*
X56286Y-42799D01*
X56404Y-42622D01*
X56446Y-42413D01*
X56446Y-41786D01*
X56404Y-41577D01*
X56286Y-41400D01*
X56109Y-41281D01*
X55900Y-41239D01*
X55690Y-41281D01*
X55513Y-41400D01*
X55395Y-41577D01*
X55394Y-41578D01*
X55385Y-41547D01*
X55251Y-41381D01*
X55062Y-41278D01*
X55034Y-41273D01*
X54950Y-41321D01*
X54950Y-42050D01*
X54957Y-42050D01*
X54957Y-42150D01*
X54950Y-42150D01*
X54950Y-42878D01*
X55034Y-42926D01*
X55062Y-42921D01*
X55251Y-42818D01*
X55385Y-42652D01*
X55394Y-42621D01*
X55395Y-42622D01*
X55513Y-42799D01*
X55600Y-42857D01*
X55600Y-42875D01*
X55167Y-43307D01*
X55102Y-43405D01*
X55080Y-43520D01*
X55080Y-43783D01*
X54950Y-43912D01*
X54879Y-44082D01*
X54850Y-44009D01*
X54850Y-42878D01*
X54850Y-42150D01*
X54850Y-42050D01*
X54850Y-41321D01*
X54765Y-41273D01*
X54737Y-41278D01*
X54548Y-41381D01*
X54414Y-41547D01*
X54353Y-41753D01*
X54353Y-42050D01*
X54850Y-42050D01*
X54850Y-42150D01*
X54353Y-42150D01*
X54353Y-42447D01*
X54414Y-42652D01*
X54548Y-42818D01*
X54737Y-42921D01*
X54765Y-42926D01*
X54850Y-42878D01*
X54850Y-44009D01*
X54810Y-43913D01*
X54667Y-43770D01*
X54481Y-43693D01*
X54279Y-43692D01*
X54146Y-43747D01*
X54146Y-42643D01*
X54146Y-41556D01*
X54146Y-41456D01*
X54108Y-41364D01*
X54037Y-41294D01*
X53946Y-41256D01*
X53712Y-41256D01*
X53650Y-41319D01*
X53650Y-42050D01*
X54084Y-42050D01*
X54146Y-41987D01*
X54146Y-41556D01*
X54146Y-42643D01*
X54146Y-42212D01*
X54084Y-42150D01*
X53650Y-42150D01*
X53650Y-42881D01*
X53712Y-42943D01*
X53946Y-42943D01*
X54037Y-42905D01*
X54108Y-42835D01*
X54146Y-42743D01*
X54146Y-42643D01*
X54146Y-43747D01*
X54093Y-43769D01*
X53950Y-43912D01*
X53879Y-44082D01*
X53810Y-43913D01*
X53667Y-43770D01*
X53481Y-43693D01*
X53279Y-43692D01*
X53093Y-43769D01*
X52962Y-43900D01*
X52842Y-43900D01*
X52700Y-43757D01*
X52700Y-43300D01*
X52699Y-43299D01*
X52677Y-43185D01*
X52612Y-43087D01*
X52612Y-43087D01*
X52455Y-42931D01*
X52600Y-42960D01*
X52809Y-42918D01*
X52986Y-42799D01*
X53053Y-42699D01*
X53053Y-42743D01*
X53091Y-42835D01*
X53162Y-42905D01*
X53253Y-42943D01*
X53487Y-42943D01*
X53550Y-42881D01*
X53550Y-42150D01*
X53542Y-42150D01*
X53542Y-42050D01*
X53550Y-42050D01*
X53550Y-41319D01*
X53487Y-41256D01*
X53253Y-41256D01*
X53162Y-41294D01*
X53091Y-41364D01*
X53053Y-41456D01*
X53053Y-41500D01*
X52986Y-41400D01*
X52809Y-41281D01*
X52600Y-41239D01*
X52390Y-41281D01*
X52213Y-41400D01*
X52100Y-41570D01*
X51986Y-41400D01*
X51809Y-41281D01*
X51600Y-41239D01*
X51390Y-41281D01*
X51213Y-41400D01*
X51095Y-41577D01*
X51053Y-41786D01*
X51053Y-42413D01*
X51095Y-42622D01*
X51213Y-42799D01*
X51390Y-42918D01*
X51600Y-42960D01*
X51629Y-42954D01*
X52100Y-43424D01*
X52100Y-43757D01*
X51955Y-43902D01*
X51875Y-44095D01*
X51874Y-44303D01*
X51954Y-44497D01*
X52102Y-44644D01*
X52295Y-44724D01*
X52503Y-44725D01*
X52697Y-44645D01*
X52842Y-44500D01*
X52963Y-44500D01*
X53092Y-44629D01*
X53278Y-44706D01*
X53480Y-44707D01*
X53666Y-44630D01*
X53809Y-44487D01*
X53880Y-44317D01*
X53949Y-44486D01*
X54092Y-44629D01*
X54278Y-44706D01*
X54480Y-44707D01*
X54666Y-44630D01*
X54809Y-44487D01*
X54880Y-44317D01*
X54949Y-44486D01*
X55092Y-44629D01*
X55278Y-44706D01*
X55448Y-44707D01*
X54967Y-45187D01*
X54902Y-45285D01*
X54880Y-45400D01*
X54880Y-46910D01*
X54902Y-47024D01*
X54967Y-47122D01*
X55137Y-47292D01*
X55137Y-47292D01*
X55235Y-47357D01*
X55323Y-47374D01*
X55324Y-47377D01*
X55472Y-47524D01*
X55665Y-47604D01*
X55873Y-47605D01*
X56067Y-47525D01*
X56214Y-47377D01*
X56294Y-47184D01*
X56295Y-46976D01*
X56215Y-46783D01*
X56067Y-46635D01*
X55874Y-46555D01*
X55666Y-46554D01*
X55480Y-46631D01*
X55480Y-46172D01*
X55552Y-46244D01*
X55745Y-46324D01*
X55953Y-46325D01*
X56147Y-46245D01*
X56292Y-46100D01*
X56740Y-46100D01*
X56740Y-46099D01*
X56854Y-46077D01*
X56854Y-46077D01*
X56952Y-46012D01*
X57592Y-45372D01*
X57592Y-45372D01*
X57600Y-45360D01*
X57600Y-46210D01*
X57622Y-46324D01*
X57687Y-46422D01*
X58245Y-46979D01*
X58244Y-47183D01*
X58324Y-47377D01*
X58472Y-47524D01*
X58665Y-47604D01*
X58873Y-47605D01*
X59067Y-47525D01*
X59214Y-47377D01*
X59294Y-47184D01*
X59295Y-46976D01*
X59215Y-46783D01*
X59067Y-46635D01*
X58874Y-46555D01*
X58669Y-46554D01*
X58200Y-46085D01*
X58200Y-44674D01*
X58278Y-44706D01*
X58480Y-44707D01*
X58600Y-44657D01*
X58600Y-45335D01*
X58553Y-45354D01*
X58405Y-45502D01*
X58325Y-45695D01*
X58324Y-45903D01*
X58404Y-46097D01*
X58552Y-46244D01*
X58745Y-46324D01*
X58953Y-46325D01*
X59147Y-46245D01*
X59294Y-46097D01*
X59374Y-45904D01*
X59375Y-45696D01*
X59295Y-45503D01*
X59200Y-45407D01*
X59200Y-44674D01*
X59278Y-44706D01*
X59462Y-44707D01*
X59610Y-44854D01*
X59610Y-46450D01*
X59632Y-46564D01*
X59676Y-46630D01*
X59675Y-46632D01*
X59595Y-46825D01*
X59594Y-47033D01*
X59674Y-47227D01*
X59822Y-47374D01*
X60015Y-47454D01*
X60223Y-47455D01*
X60417Y-47375D01*
X60564Y-47227D01*
X60644Y-47034D01*
X60645Y-46826D01*
X60565Y-46633D01*
X60417Y-46485D01*
X60333Y-46450D01*
X60333Y-46450D01*
X60332Y-46447D01*
X60332Y-46447D01*
X60210Y-46325D01*
X60210Y-45823D01*
X60244Y-45907D01*
X60392Y-46054D01*
X60585Y-46134D01*
X60793Y-46135D01*
X60987Y-46055D01*
X61000Y-46042D01*
X61000Y-47498D01*
X60939Y-47558D01*
X60875Y-47715D01*
X60874Y-47884D01*
X60939Y-48040D01*
X61058Y-48160D01*
X61215Y-48224D01*
X61384Y-48225D01*
X61540Y-48160D01*
X61660Y-48041D01*
X61724Y-47884D01*
X61725Y-47715D01*
X61660Y-47559D01*
X61600Y-47498D01*
X61600Y-45200D01*
X61599Y-45199D01*
X61577Y-45085D01*
X61512Y-44987D01*
X61512Y-44987D01*
X61200Y-44675D01*
X61200Y-44674D01*
X61278Y-44706D01*
X61480Y-44707D01*
X61666Y-44630D01*
X61809Y-44487D01*
X61880Y-44317D01*
X61949Y-44486D01*
X62092Y-44629D01*
X62278Y-44706D01*
X62480Y-44707D01*
X62666Y-44630D01*
X62809Y-44487D01*
X62880Y-44317D01*
X62949Y-44486D01*
X63092Y-44629D01*
X63278Y-44706D01*
X63480Y-44707D01*
X63600Y-44657D01*
X63600Y-44875D01*
X63477Y-44997D01*
X63412Y-45095D01*
X63399Y-45161D01*
X63393Y-45164D01*
X63245Y-45312D01*
X63165Y-45505D01*
X63164Y-45713D01*
X63244Y-45907D01*
X63392Y-46054D01*
X63585Y-46134D01*
X63793Y-46135D01*
X63987Y-46055D01*
X64134Y-45907D01*
X64214Y-45714D01*
X64215Y-45506D01*
X64135Y-45313D01*
X64073Y-45250D01*
X64112Y-45212D01*
X64112Y-45212D01*
X64177Y-45114D01*
X64199Y-45000D01*
X64200Y-45000D01*
X64200Y-44674D01*
X64278Y-44706D01*
X64480Y-44707D01*
X64666Y-44630D01*
X64809Y-44487D01*
X64886Y-44301D01*
X64887Y-44099D01*
X64810Y-43913D01*
X64667Y-43770D01*
X64481Y-43693D01*
X64279Y-43692D01*
X64200Y-43725D01*
X64200Y-43724D01*
X64524Y-43400D01*
X65100Y-43400D01*
X65100Y-43399D01*
X65214Y-43377D01*
X65214Y-43377D01*
X65312Y-43312D01*
X65612Y-43012D01*
X65612Y-43012D01*
X65677Y-42914D01*
X65686Y-42866D01*
X65786Y-42799D01*
X65904Y-42622D01*
X65937Y-42461D01*
X66087Y-42612D01*
X66087Y-42612D01*
X66185Y-42677D01*
X66299Y-42699D01*
X66300Y-42700D01*
X66457Y-42700D01*
X66602Y-42844D01*
X66735Y-42900D01*
X66603Y-42954D01*
X66455Y-43102D01*
X66375Y-43295D01*
X66374Y-43503D01*
X66454Y-43697D01*
X66602Y-43844D01*
X66795Y-43924D01*
X67003Y-43925D01*
X67197Y-43845D01*
X67344Y-43697D01*
X67424Y-43504D01*
X67425Y-43296D01*
X67425Y-44348D01*
X67251Y-44174D01*
X67023Y-44080D01*
X66777Y-44079D01*
X66549Y-44174D01*
X66374Y-44348D01*
X66280Y-44576D01*
X66279Y-44822D01*
X66374Y-45050D01*
X66523Y-45200D01*
X66374Y-45348D01*
X66353Y-45400D01*
X65796Y-45400D01*
X65667Y-45270D01*
X65497Y-45199D01*
X65666Y-45130D01*
X65809Y-44987D01*
X65886Y-44801D01*
X65887Y-44599D01*
X65810Y-44413D01*
X65667Y-44270D01*
X65481Y-44193D01*
X65279Y-44192D01*
X65093Y-44269D01*
X64950Y-44412D01*
X64873Y-44598D01*
X64872Y-44800D01*
X64949Y-44986D01*
X65092Y-45129D01*
X65262Y-45200D01*
X65093Y-45269D01*
X64950Y-45412D01*
X64873Y-45598D01*
X64872Y-45800D01*
X64949Y-45986D01*
X65092Y-46129D01*
X65259Y-46199D01*
X65250Y-46199D01*
X65118Y-46254D01*
X65095Y-46345D01*
X65380Y-46629D01*
X65664Y-46345D01*
X65641Y-46254D01*
X65492Y-46202D01*
X65666Y-46130D01*
X65797Y-46000D01*
X66353Y-46000D01*
X66374Y-46050D01*
X66547Y-46224D01*
X66534Y-46263D01*
X66900Y-46629D01*
X67265Y-46263D01*
X67252Y-46224D01*
X67425Y-46051D01*
X67519Y-45823D01*
X67520Y-45577D01*
X67520Y-46690D01*
X67514Y-46552D01*
X67439Y-46370D01*
X67336Y-46334D01*
X66970Y-46700D01*
X67336Y-47065D01*
X67439Y-47029D01*
X67524Y-46798D01*
X67524Y-54330D01*
X67520Y-54330D01*
X67520Y-49577D01*
X67425Y-49349D01*
X67276Y-49199D01*
X67425Y-49051D01*
X67519Y-48823D01*
X67520Y-48577D01*
X67425Y-48349D01*
X67276Y-48199D01*
X67425Y-48051D01*
X67519Y-47823D01*
X67520Y-47577D01*
X67425Y-47349D01*
X67252Y-47175D01*
X67265Y-47136D01*
X66900Y-46770D01*
X66829Y-46841D01*
X66829Y-46700D01*
X66463Y-46334D01*
X66360Y-46370D01*
X66275Y-46601D01*
X66285Y-46847D01*
X66360Y-47029D01*
X66463Y-47065D01*
X66829Y-46700D01*
X66829Y-46841D01*
X66534Y-47136D01*
X66547Y-47175D01*
X66374Y-47348D01*
X66353Y-47400D01*
X65891Y-47400D01*
X65891Y-46771D01*
X65880Y-46570D01*
X65825Y-46438D01*
X65734Y-46415D01*
X65450Y-46700D01*
X65734Y-46984D01*
X65825Y-46961D01*
X65891Y-46771D01*
X65891Y-47400D01*
X65796Y-47400D01*
X65667Y-47270D01*
X65500Y-47200D01*
X65509Y-47200D01*
X65641Y-47145D01*
X65664Y-47054D01*
X65380Y-46770D01*
X65309Y-46841D01*
X65309Y-46700D01*
X65025Y-46415D01*
X64934Y-46438D01*
X64868Y-46628D01*
X64879Y-46829D01*
X64934Y-46961D01*
X65025Y-46984D01*
X65309Y-46700D01*
X65309Y-46841D01*
X65095Y-47054D01*
X65118Y-47145D01*
X65267Y-47197D01*
X65093Y-47269D01*
X64950Y-47412D01*
X64873Y-47598D01*
X64872Y-47800D01*
X64949Y-47986D01*
X65092Y-48129D01*
X65262Y-48200D01*
X65093Y-48269D01*
X64950Y-48412D01*
X64873Y-48598D01*
X64872Y-48800D01*
X64949Y-48986D01*
X65092Y-49129D01*
X65262Y-49200D01*
X65093Y-49269D01*
X64950Y-49412D01*
X64873Y-49598D01*
X64872Y-49800D01*
X64949Y-49986D01*
X65092Y-50129D01*
X65278Y-50206D01*
X65480Y-50207D01*
X65666Y-50130D01*
X65797Y-50000D01*
X66353Y-50000D01*
X66374Y-50050D01*
X66548Y-50225D01*
X66776Y-50319D01*
X67022Y-50320D01*
X67250Y-50225D01*
X67425Y-50051D01*
X67519Y-49823D01*
X67520Y-49577D01*
X67520Y-54330D01*
X67446Y-54330D01*
X67446Y-52513D01*
X67446Y-51886D01*
X67404Y-51677D01*
X67286Y-51500D01*
X67186Y-51433D01*
X67177Y-51385D01*
X67112Y-51287D01*
X67112Y-51287D01*
X66612Y-50787D01*
X66514Y-50722D01*
X66400Y-50700D01*
X64497Y-50700D01*
X64666Y-50630D01*
X64809Y-50487D01*
X64886Y-50301D01*
X64887Y-50099D01*
X64810Y-49913D01*
X64667Y-49770D01*
X64481Y-49693D01*
X64279Y-49692D01*
X64093Y-49769D01*
X63950Y-49912D01*
X63879Y-50082D01*
X63810Y-49913D01*
X63667Y-49770D01*
X63645Y-49761D01*
X63645Y-46826D01*
X63565Y-46633D01*
X63417Y-46485D01*
X63224Y-46405D01*
X63016Y-46404D01*
X62823Y-46484D01*
X62675Y-46632D01*
X62595Y-46825D01*
X62594Y-47033D01*
X62674Y-47227D01*
X62822Y-47374D01*
X63015Y-47454D01*
X63223Y-47455D01*
X63417Y-47375D01*
X63564Y-47227D01*
X63644Y-47034D01*
X63645Y-46826D01*
X63645Y-49761D01*
X63481Y-49693D01*
X63279Y-49692D01*
X63093Y-49769D01*
X62950Y-49912D01*
X62879Y-50082D01*
X62810Y-49913D01*
X62667Y-49770D01*
X62481Y-49693D01*
X62279Y-49692D01*
X62093Y-49769D01*
X61950Y-49912D01*
X61880Y-50079D01*
X61880Y-50070D01*
X61825Y-49938D01*
X61734Y-49915D01*
X61664Y-49986D01*
X61664Y-49845D01*
X61641Y-49754D01*
X61451Y-49688D01*
X61387Y-49691D01*
X61387Y-49099D01*
X61310Y-48913D01*
X61167Y-48770D01*
X61157Y-48766D01*
X61157Y-48765D01*
X61092Y-48667D01*
X60612Y-48187D01*
X60514Y-48122D01*
X60400Y-48100D01*
X53524Y-48100D01*
X52712Y-47287D01*
X52614Y-47222D01*
X52500Y-47200D01*
X51557Y-47200D01*
X51499Y-47113D01*
X51329Y-47000D01*
X51499Y-46886D01*
X51618Y-46709D01*
X51660Y-46500D01*
X51618Y-46290D01*
X51499Y-46113D01*
X51329Y-46000D01*
X51499Y-45886D01*
X51618Y-45709D01*
X51660Y-45500D01*
X51618Y-45290D01*
X51499Y-45113D01*
X51322Y-44995D01*
X51113Y-44953D01*
X50746Y-44953D01*
X50746Y-42643D01*
X50746Y-41556D01*
X50746Y-41456D01*
X50708Y-41364D01*
X50637Y-41294D01*
X50546Y-41256D01*
X50312Y-41256D01*
X50250Y-41319D01*
X50250Y-42050D01*
X50684Y-42050D01*
X50746Y-41987D01*
X50746Y-41556D01*
X50746Y-42643D01*
X50746Y-42212D01*
X50684Y-42150D01*
X50250Y-42150D01*
X50250Y-42881D01*
X50312Y-42943D01*
X50546Y-42943D01*
X50637Y-42905D01*
X50708Y-42835D01*
X50746Y-42743D01*
X50746Y-42643D01*
X50746Y-44953D01*
X50486Y-44953D01*
X50277Y-44995D01*
X50150Y-45080D01*
X50150Y-42881D01*
X50150Y-42150D01*
X50142Y-42150D01*
X50142Y-42050D01*
X50150Y-42050D01*
X50150Y-41319D01*
X50087Y-41256D01*
X49853Y-41256D01*
X49762Y-41294D01*
X49691Y-41364D01*
X49653Y-41456D01*
X49653Y-41500D01*
X49586Y-41400D01*
X49409Y-41281D01*
X49200Y-41239D01*
X48990Y-41281D01*
X48813Y-41400D01*
X48695Y-41577D01*
X48653Y-41786D01*
X48653Y-42413D01*
X48695Y-42622D01*
X48813Y-42799D01*
X48990Y-42918D01*
X49200Y-42960D01*
X49409Y-42918D01*
X49586Y-42799D01*
X49653Y-42699D01*
X49653Y-42743D01*
X49691Y-42835D01*
X49762Y-42905D01*
X49853Y-42943D01*
X50087Y-42943D01*
X50150Y-42881D01*
X50150Y-45080D01*
X50100Y-45113D01*
X49981Y-45290D01*
X49939Y-45500D01*
X49981Y-45709D01*
X50100Y-45886D01*
X50270Y-46000D01*
X50100Y-46113D01*
X49981Y-46290D01*
X49939Y-46500D01*
X49981Y-46709D01*
X50100Y-46886D01*
X50270Y-47000D01*
X50100Y-47113D01*
X49981Y-47290D01*
X49939Y-47500D01*
X49981Y-47709D01*
X50100Y-47886D01*
X50270Y-48000D01*
X50100Y-48113D01*
X49981Y-48290D01*
X49939Y-48500D01*
X49981Y-48709D01*
X50100Y-48886D01*
X50277Y-49004D01*
X50278Y-49005D01*
X50247Y-49014D01*
X50081Y-49148D01*
X49978Y-49337D01*
X49973Y-49365D01*
X50021Y-49450D01*
X50750Y-49450D01*
X50750Y-49442D01*
X50850Y-49442D01*
X50850Y-49450D01*
X51578Y-49450D01*
X51626Y-49365D01*
X51621Y-49337D01*
X51518Y-49148D01*
X51352Y-49014D01*
X51321Y-49005D01*
X51322Y-49004D01*
X51499Y-48886D01*
X51557Y-48800D01*
X52375Y-48800D01*
X52987Y-49412D01*
X52987Y-49412D01*
X53085Y-49477D01*
X53199Y-49499D01*
X53200Y-49500D01*
X59463Y-49500D01*
X59592Y-49629D01*
X59778Y-49706D01*
X59980Y-49707D01*
X60166Y-49630D01*
X60309Y-49487D01*
X60380Y-49317D01*
X60449Y-49486D01*
X60592Y-49629D01*
X60778Y-49706D01*
X60980Y-49707D01*
X61166Y-49630D01*
X61309Y-49487D01*
X61386Y-49301D01*
X61387Y-49099D01*
X61387Y-49691D01*
X61250Y-49699D01*
X61118Y-49754D01*
X61095Y-49845D01*
X61380Y-50129D01*
X61664Y-49845D01*
X61664Y-49986D01*
X61450Y-50200D01*
X61734Y-50484D01*
X61825Y-50461D01*
X61877Y-50312D01*
X61949Y-50486D01*
X62092Y-50629D01*
X62262Y-50700D01*
X61510Y-50700D01*
X61641Y-50645D01*
X61664Y-50554D01*
X61380Y-50270D01*
X61374Y-50276D01*
X61303Y-50205D01*
X61309Y-50200D01*
X61025Y-49915D01*
X60934Y-49938D01*
X60882Y-50087D01*
X60810Y-49913D01*
X60667Y-49770D01*
X60481Y-49693D01*
X60279Y-49692D01*
X60093Y-49769D01*
X59950Y-49912D01*
X59879Y-50082D01*
X59810Y-49913D01*
X59667Y-49770D01*
X59481Y-49693D01*
X59279Y-49692D01*
X59093Y-49769D01*
X58950Y-49912D01*
X58879Y-50082D01*
X58810Y-49913D01*
X58667Y-49770D01*
X58481Y-49693D01*
X58279Y-49692D01*
X58093Y-49769D01*
X57950Y-49912D01*
X57879Y-50082D01*
X57810Y-49913D01*
X57667Y-49770D01*
X57481Y-49693D01*
X57279Y-49692D01*
X57093Y-49769D01*
X56950Y-49912D01*
X56879Y-50082D01*
X56810Y-49913D01*
X56667Y-49770D01*
X56481Y-49693D01*
X56279Y-49692D01*
X56093Y-49769D01*
X55950Y-49912D01*
X55879Y-50082D01*
X55810Y-49913D01*
X55667Y-49770D01*
X55481Y-49693D01*
X55279Y-49692D01*
X55093Y-49769D01*
X54950Y-49912D01*
X54879Y-50082D01*
X54810Y-49913D01*
X54667Y-49770D01*
X54481Y-49693D01*
X54279Y-49692D01*
X54093Y-49769D01*
X53950Y-49912D01*
X53879Y-50082D01*
X53810Y-49913D01*
X53667Y-49770D01*
X53481Y-49693D01*
X53279Y-49692D01*
X53093Y-49769D01*
X52950Y-49912D01*
X52873Y-50098D01*
X52872Y-50300D01*
X52949Y-50486D01*
X53092Y-50629D01*
X53262Y-50700D01*
X52500Y-50700D01*
X52385Y-50722D01*
X52287Y-50787D01*
X51818Y-51257D01*
X51809Y-51253D01*
X51660Y-51253D01*
X51660Y-50500D01*
X51618Y-50290D01*
X51499Y-50113D01*
X51322Y-49995D01*
X51321Y-49994D01*
X51352Y-49985D01*
X51518Y-49851D01*
X51621Y-49662D01*
X51626Y-49634D01*
X51578Y-49550D01*
X50850Y-49550D01*
X50850Y-49557D01*
X50750Y-49557D01*
X50750Y-49550D01*
X50021Y-49550D01*
X49973Y-49634D01*
X49978Y-49662D01*
X50081Y-49851D01*
X50247Y-49985D01*
X50278Y-49994D01*
X50277Y-49995D01*
X50100Y-50113D01*
X49981Y-50290D01*
X49939Y-50500D01*
X49981Y-50709D01*
X50100Y-50886D01*
X50277Y-51004D01*
X50486Y-51046D01*
X51113Y-51046D01*
X51322Y-51004D01*
X51499Y-50886D01*
X51618Y-50709D01*
X51660Y-50500D01*
X51660Y-51253D01*
X51591Y-51253D01*
X51390Y-51336D01*
X51236Y-51490D01*
X51200Y-51579D01*
X51163Y-51490D01*
X51009Y-51336D01*
X50809Y-51253D01*
X50591Y-51253D01*
X50390Y-51336D01*
X50236Y-51490D01*
X50200Y-51579D01*
X50163Y-51490D01*
X50009Y-51336D01*
X49929Y-51303D01*
X49929Y-44275D01*
X49918Y-44067D01*
X49860Y-43927D01*
X49767Y-43902D01*
X49697Y-43973D01*
X49697Y-43832D01*
X49672Y-43739D01*
X49475Y-43670D01*
X49267Y-43681D01*
X49127Y-43739D01*
X49102Y-43832D01*
X49400Y-44129D01*
X49697Y-43832D01*
X49697Y-43973D01*
X49470Y-44200D01*
X49767Y-44497D01*
X49860Y-44472D01*
X49929Y-44275D01*
X49929Y-51303D01*
X49809Y-51253D01*
X49697Y-51253D01*
X49697Y-44567D01*
X49400Y-44270D01*
X49329Y-44341D01*
X49329Y-44200D01*
X49032Y-43902D01*
X48939Y-43927D01*
X48870Y-44124D01*
X48881Y-44332D01*
X48939Y-44472D01*
X49032Y-44497D01*
X49329Y-44200D01*
X49329Y-44341D01*
X49102Y-44567D01*
X49127Y-44660D01*
X49324Y-44729D01*
X49532Y-44718D01*
X49672Y-44660D01*
X49697Y-44567D01*
X49697Y-51253D01*
X49591Y-51253D01*
X49390Y-51336D01*
X49236Y-51490D01*
X49153Y-51690D01*
X49153Y-51908D01*
X49236Y-52109D01*
X49390Y-52263D01*
X49590Y-52346D01*
X49808Y-52346D01*
X50009Y-52263D01*
X50163Y-52109D01*
X50199Y-52020D01*
X50236Y-52109D01*
X50390Y-52263D01*
X50590Y-52346D01*
X50808Y-52346D01*
X51009Y-52263D01*
X51163Y-52109D01*
X51199Y-52020D01*
X51236Y-52109D01*
X51390Y-52263D01*
X51590Y-52346D01*
X51808Y-52346D01*
X52009Y-52263D01*
X52163Y-52109D01*
X52199Y-52020D01*
X52236Y-52109D01*
X52390Y-52263D01*
X52590Y-52346D01*
X52808Y-52346D01*
X53009Y-52263D01*
X53163Y-52109D01*
X53199Y-52020D01*
X53236Y-52109D01*
X53390Y-52263D01*
X53590Y-52346D01*
X53808Y-52346D01*
X54009Y-52263D01*
X54163Y-52109D01*
X54199Y-52020D01*
X54236Y-52109D01*
X54390Y-52263D01*
X54590Y-52346D01*
X54808Y-52346D01*
X55009Y-52263D01*
X55163Y-52109D01*
X55199Y-52020D01*
X55236Y-52109D01*
X55390Y-52263D01*
X55590Y-52346D01*
X55808Y-52346D01*
X56009Y-52263D01*
X56153Y-52119D01*
X56153Y-52146D01*
X56191Y-52238D01*
X56262Y-52308D01*
X56353Y-52346D01*
X56587Y-52346D01*
X56650Y-52284D01*
X56650Y-51850D01*
X56642Y-51850D01*
X56642Y-51750D01*
X56650Y-51750D01*
X56650Y-51316D01*
X56587Y-51253D01*
X56353Y-51253D01*
X56262Y-51291D01*
X56191Y-51361D01*
X56153Y-51453D01*
X56153Y-51480D01*
X56009Y-51336D01*
X55809Y-51253D01*
X55730Y-51253D01*
X55792Y-51212D01*
X56297Y-50706D01*
X56480Y-50707D01*
X56666Y-50630D01*
X56809Y-50487D01*
X56880Y-50317D01*
X56949Y-50486D01*
X57092Y-50629D01*
X57278Y-50706D01*
X57480Y-50707D01*
X57666Y-50630D01*
X57809Y-50487D01*
X57880Y-50317D01*
X57949Y-50486D01*
X58092Y-50629D01*
X58200Y-50674D01*
X58200Y-51442D01*
X58113Y-51500D01*
X57995Y-51677D01*
X57953Y-51886D01*
X57953Y-52513D01*
X57995Y-52722D01*
X58113Y-52899D01*
X58290Y-53018D01*
X58500Y-53060D01*
X58709Y-53018D01*
X58886Y-52899D01*
X59000Y-52729D01*
X59113Y-52899D01*
X59290Y-53018D01*
X59500Y-53060D01*
X59709Y-53018D01*
X59886Y-52899D01*
X60004Y-52722D01*
X60046Y-52513D01*
X60046Y-51886D01*
X60004Y-51677D01*
X59886Y-51500D01*
X59709Y-51381D01*
X59500Y-51339D01*
X59290Y-51381D01*
X59113Y-51500D01*
X59000Y-51670D01*
X58886Y-51500D01*
X58800Y-51442D01*
X58800Y-50497D01*
X58809Y-50487D01*
X58880Y-50317D01*
X58949Y-50486D01*
X59092Y-50629D01*
X59278Y-50706D01*
X59462Y-50707D01*
X60267Y-51512D01*
X60267Y-51512D01*
X60365Y-51577D01*
X60480Y-51600D01*
X60653Y-51600D01*
X60653Y-51656D01*
X60653Y-52087D01*
X60716Y-52150D01*
X61150Y-52150D01*
X61150Y-52142D01*
X61250Y-52142D01*
X61250Y-52150D01*
X61257Y-52150D01*
X61257Y-52250D01*
X61250Y-52250D01*
X61250Y-52981D01*
X61312Y-53043D01*
X61546Y-53043D01*
X61637Y-53005D01*
X61708Y-52935D01*
X61746Y-52843D01*
X61746Y-52799D01*
X61813Y-52899D01*
X61990Y-53018D01*
X62200Y-53060D01*
X62409Y-53018D01*
X62586Y-52899D01*
X62700Y-52729D01*
X62813Y-52899D01*
X62990Y-53018D01*
X63200Y-53060D01*
X63409Y-53018D01*
X63586Y-52899D01*
X63704Y-52722D01*
X63746Y-52513D01*
X63746Y-51886D01*
X63704Y-51677D01*
X63586Y-51500D01*
X63409Y-51381D01*
X63405Y-51380D01*
X63324Y-51300D01*
X66275Y-51300D01*
X66498Y-51522D01*
X66400Y-51670D01*
X66286Y-51500D01*
X66109Y-51381D01*
X65900Y-51339D01*
X65690Y-51381D01*
X65513Y-51500D01*
X65446Y-51600D01*
X65446Y-51556D01*
X65408Y-51464D01*
X65337Y-51394D01*
X65246Y-51356D01*
X65012Y-51356D01*
X64950Y-51419D01*
X64950Y-52150D01*
X64957Y-52150D01*
X64957Y-52250D01*
X64950Y-52250D01*
X64950Y-52981D01*
X65012Y-53043D01*
X65246Y-53043D01*
X65337Y-53005D01*
X65408Y-52935D01*
X65446Y-52843D01*
X65446Y-52799D01*
X65513Y-52899D01*
X65690Y-53018D01*
X65900Y-53060D01*
X66109Y-53018D01*
X66286Y-52899D01*
X66400Y-52729D01*
X66513Y-52899D01*
X66690Y-53018D01*
X66900Y-53060D01*
X67109Y-53018D01*
X67286Y-52899D01*
X67404Y-52722D01*
X67446Y-52513D01*
X67446Y-54330D01*
X64850Y-54330D01*
X64850Y-52981D01*
X64850Y-52250D01*
X64850Y-52150D01*
X64850Y-51419D01*
X64787Y-51356D01*
X64553Y-51356D01*
X64462Y-51394D01*
X64391Y-51464D01*
X64353Y-51556D01*
X64353Y-51656D01*
X64353Y-52087D01*
X64416Y-52150D01*
X64850Y-52150D01*
X64850Y-52250D01*
X64416Y-52250D01*
X64353Y-52312D01*
X64353Y-52743D01*
X64353Y-52843D01*
X64391Y-52935D01*
X64462Y-53005D01*
X64553Y-53043D01*
X64787Y-53043D01*
X64850Y-52981D01*
X64850Y-54330D01*
X61150Y-54330D01*
X61150Y-52981D01*
X61150Y-52250D01*
X60716Y-52250D01*
X60653Y-52312D01*
X60653Y-52743D01*
X60653Y-52843D01*
X60691Y-52935D01*
X60762Y-53005D01*
X60853Y-53043D01*
X61087Y-53043D01*
X61150Y-52981D01*
X61150Y-54330D01*
X57246Y-54330D01*
X57246Y-52046D01*
X57246Y-51553D01*
X57246Y-51453D01*
X57208Y-51361D01*
X57137Y-51291D01*
X57046Y-51253D01*
X56812Y-51253D01*
X56750Y-51316D01*
X56750Y-51750D01*
X57184Y-51750D01*
X57246Y-51687D01*
X57246Y-51553D01*
X57246Y-52046D01*
X57246Y-51912D01*
X57184Y-51850D01*
X56750Y-51850D01*
X56750Y-52284D01*
X56812Y-52346D01*
X57046Y-52346D01*
X57137Y-52308D01*
X57208Y-52238D01*
X57246Y-52146D01*
X57246Y-52046D01*
X57246Y-54330D01*
X48592Y-54330D01*
X48648Y-54274D01*
X48648Y-54273D01*
X48777Y-54080D01*
X48778Y-54079D01*
X48818Y-53982D01*
X48864Y-53752D01*
X48864Y-53752D01*
X48864Y-53752D01*
X48864Y-53700D01*
X48864Y-53647D01*
X48864Y-53647D01*
X48864Y-53647D01*
X48818Y-53417D01*
X48778Y-53320D01*
X48777Y-53319D01*
X48648Y-53126D01*
X48648Y-53125D01*
X48574Y-53051D01*
X48379Y-52921D01*
X48281Y-52881D01*
X48280Y-52881D01*
X48053Y-52835D01*
X48052Y-52835D01*
X47947Y-52835D01*
X47717Y-52881D01*
X47620Y-52921D01*
X47619Y-52922D01*
X47426Y-53051D01*
X47425Y-53051D01*
X47351Y-53125D01*
X47269Y-53248D01*
X47269Y-39469D01*
X67748Y-39469D01*
X67626Y-39551D01*
X67625Y-39551D01*
X67551Y-39625D01*
X67421Y-39820D01*
X67381Y-39918D01*
X67381Y-39919D01*
X67335Y-40147D01*
X67335Y-40147D01*
X67335Y-40147D01*
X67335Y-40200D01*
X67335Y-40252D01*
X67335Y-40252D01*
X67335Y-40252D01*
X67381Y-40480D01*
X67381Y-40481D01*
X67421Y-40579D01*
X67551Y-40774D01*
X67625Y-40848D01*
X67626Y-40848D01*
X67819Y-40977D01*
X67820Y-40978D01*
X67917Y-41018D01*
X68147Y-41064D01*
X68252Y-41064D01*
X68253Y-41064D01*
X68480Y-41018D01*
X68481Y-41018D01*
X68579Y-40978D01*
X68774Y-40848D01*
X68848Y-40774D01*
X68848Y-40773D01*
X68950Y-40621D01*
X68950Y-54330D01*
M02*
