G04 (created by PCBNEW (2013-07-07 BZR 4022)-stable) date 30/07/2014 12:10:21 p.m.*
%MOIN*%
G04 Gerber Fmt 3.4, Leading zero omitted, Abs format*
%FSLAX34Y34*%
G01*
G70*
G90*
G04 APERTURE LIST*
%ADD10C,0.00590551*%
%ADD11C,0.0593*%
%ADD12R,0.0593X0.0593*%
%ADD13C,0.074*%
%ADD14C,0.055*%
%ADD15O,0.0593X0.1187*%
%ADD16O,0.1187X0.0593*%
%ADD17C,0.0514*%
%ADD18R,0.0593X0.1187*%
G04 APERTURE END LIST*
G54D10*
G54D11*
X52700Y-51800D03*
X51700Y-51800D03*
X50700Y-51800D03*
X49700Y-51800D03*
X53700Y-51800D03*
X54700Y-51800D03*
X55700Y-51800D03*
G54D12*
X56700Y-51800D03*
G54D11*
X58593Y-42100D03*
X57807Y-42100D03*
X59381Y-42100D03*
X57019Y-42100D03*
G54D13*
X66900Y-45700D03*
X66900Y-49700D03*
X66900Y-44700D03*
X66900Y-48700D03*
X66900Y-47700D03*
X66900Y-46700D03*
G54D14*
X63690Y-45610D03*
X60690Y-45610D03*
X52400Y-44200D03*
X49400Y-44200D03*
X60120Y-46930D03*
X63120Y-46930D03*
X58850Y-45800D03*
X55850Y-45800D03*
X58770Y-47080D03*
X55770Y-47080D03*
G54D15*
X65400Y-42100D03*
X64400Y-42100D03*
X63400Y-42100D03*
X62400Y-42100D03*
X61400Y-42100D03*
X60400Y-42100D03*
G54D16*
X50800Y-45500D03*
X50800Y-46500D03*
X50800Y-47500D03*
X50800Y-48500D03*
X50800Y-49500D03*
X50800Y-50500D03*
G54D15*
X58500Y-52200D03*
X59500Y-52200D03*
X55900Y-42100D03*
X54900Y-42100D03*
G54D17*
X57380Y-50200D03*
X58380Y-50200D03*
X59380Y-50200D03*
X60380Y-50200D03*
X59880Y-49200D03*
X60880Y-49200D03*
X65380Y-44700D03*
X60380Y-44200D03*
X59380Y-44200D03*
X58380Y-44200D03*
X57380Y-44200D03*
X56380Y-44200D03*
X55380Y-44200D03*
X54380Y-44200D03*
X53380Y-44200D03*
X53380Y-50200D03*
X54380Y-50200D03*
X55380Y-50200D03*
X56380Y-50200D03*
X63380Y-50200D03*
X61380Y-44200D03*
X65380Y-45700D03*
X65380Y-49700D03*
X64380Y-50200D03*
X62380Y-50200D03*
X62380Y-44200D03*
X63380Y-44200D03*
X65380Y-47700D03*
X64380Y-44200D03*
X65380Y-48700D03*
X61380Y-50200D03*
X65380Y-46700D03*
G54D14*
X66900Y-42400D03*
X66900Y-43400D03*
G54D18*
X64900Y-52200D03*
G54D15*
X65900Y-52200D03*
X66900Y-52200D03*
G54D18*
X50200Y-42100D03*
G54D15*
X49200Y-42100D03*
G54D18*
X61200Y-52200D03*
G54D15*
X62200Y-52200D03*
X63200Y-52200D03*
G54D18*
X53600Y-42100D03*
G54D15*
X52600Y-42100D03*
X51600Y-42100D03*
M02*
