M48
INCH,TZ
T1C0.025
T2C0.031
T3C0.032
T4C0.039
T5C0.040
%
G90
G05
T1
X61300Y-47800
T2
X53380Y-44200
X53380Y-50200
X54380Y-44200
X54380Y-50200
X55380Y-44200
X55380Y-50200
X56380Y-44200
X56380Y-50200
X57380Y-44200
X57380Y-50200
X58380Y-44200
X58380Y-50200
X59380Y-44200
X59380Y-50200
X59880Y-49200
X60380Y-44200
X60380Y-50200
X60880Y-49200
X61380Y-44200
X61380Y-50200
X62380Y-44200
X62380Y-50200
X63380Y-44200
X63380Y-50200
X64380Y-44200
X64380Y-50200
X65380Y-44700
X65380Y-45700
X65380Y-46700
X65380Y-47700
X65380Y-48700
X65380Y-49700
T3
X49400Y-44200
X52400Y-44200
X55770Y-47080
X55850Y-45800
X58770Y-47080
X58850Y-45800
X60120Y-46930
X60690Y-45610
X63120Y-46930
X63690Y-45610
X66900Y-42400
X66900Y-43400
T4
X49200Y-42100
X49700Y-51800
X50200Y-42100
X50700Y-51800
X50800Y-45500
X50800Y-46500
X50800Y-47500
X50800Y-48500
X50800Y-49500
X50800Y-50500
X51600Y-42100
X51700Y-51800
X52600Y-42100
X52700Y-51800
X53600Y-42100
X53700Y-51800
X54700Y-51800
X54900Y-42100
X55700Y-51800
X55900Y-42100
X56700Y-51800
X57019Y-42100
X57807Y-42100
X58500Y-52200
X58593Y-42100
X59381Y-42100
X59500Y-52200
X60400Y-42100
X61200Y-52200
X61400Y-42100
X62200Y-52200
X62400Y-42100
X63200Y-52200
X63400Y-42100
X64400Y-42100
X64900Y-52200
X65400Y-42100
X65900Y-52200
X66900Y-52200
T5
X66900Y-44700
X66900Y-45700
X66900Y-46700
X66900Y-47700
X66900Y-48700
X66900Y-49700
T0
M30
