G04 (created by PCBNEW (2013-07-07 BZR 4022)-stable) date 30/07/2014 12:10:21 p.m.*
%MOIN*%
G04 Gerber Fmt 3.4, Leading zero omitted, Abs format*
%FSLAX34Y34*%
G01*
G70*
G90*
G04 APERTURE LIST*
%ADD10C,0.00590551*%
%ADD11C,0.0593*%
%ADD12R,0.0593X0.0593*%
%ADD13C,0.074*%
%ADD14C,0.055*%
%ADD15O,0.0593X0.1187*%
%ADD16O,0.1187X0.0593*%
%ADD17C,0.0514*%
%ADD18R,0.0593X0.1187*%
%ADD19C,0.035*%
%ADD20C,0.01*%
G04 APERTURE END LIST*
G54D10*
G54D11*
X52700Y-51800D03*
X51700Y-51800D03*
X50700Y-51800D03*
X49700Y-51800D03*
X53700Y-51800D03*
X54700Y-51800D03*
X55700Y-51800D03*
G54D12*
X56700Y-51800D03*
G54D11*
X58593Y-42100D03*
X57807Y-42100D03*
X59381Y-42100D03*
X57019Y-42100D03*
G54D13*
X66900Y-45700D03*
X66900Y-49700D03*
X66900Y-44700D03*
X66900Y-48700D03*
X66900Y-47700D03*
X66900Y-46700D03*
G54D14*
X63690Y-45610D03*
X60690Y-45610D03*
X52400Y-44200D03*
X49400Y-44200D03*
X60120Y-46930D03*
X63120Y-46930D03*
X58850Y-45800D03*
X55850Y-45800D03*
X58770Y-47080D03*
X55770Y-47080D03*
G54D15*
X65400Y-42100D03*
X64400Y-42100D03*
X63400Y-42100D03*
X62400Y-42100D03*
X61400Y-42100D03*
X60400Y-42100D03*
G54D16*
X50800Y-45500D03*
X50800Y-46500D03*
X50800Y-47500D03*
X50800Y-48500D03*
X50800Y-49500D03*
X50800Y-50500D03*
G54D15*
X58500Y-52200D03*
X59500Y-52200D03*
X55900Y-42100D03*
X54900Y-42100D03*
G54D17*
X57380Y-50200D03*
X58380Y-50200D03*
X59380Y-50200D03*
X60380Y-50200D03*
X59880Y-49200D03*
X60880Y-49200D03*
X65380Y-44700D03*
X60380Y-44200D03*
X59380Y-44200D03*
X58380Y-44200D03*
X57380Y-44200D03*
X56380Y-44200D03*
X55380Y-44200D03*
X54380Y-44200D03*
X53380Y-44200D03*
X53380Y-50200D03*
X54380Y-50200D03*
X55380Y-50200D03*
X56380Y-50200D03*
X63380Y-50200D03*
X61380Y-44200D03*
X65380Y-45700D03*
X65380Y-49700D03*
X64380Y-50200D03*
X62380Y-50200D03*
X62380Y-44200D03*
X63380Y-44200D03*
X65380Y-47700D03*
X64380Y-44200D03*
X65380Y-48700D03*
X61380Y-50200D03*
X65380Y-46700D03*
G54D14*
X66900Y-42400D03*
X66900Y-43400D03*
G54D18*
X64900Y-52200D03*
G54D15*
X65900Y-52200D03*
X66900Y-52200D03*
G54D18*
X50200Y-42100D03*
G54D15*
X49200Y-42100D03*
G54D18*
X61200Y-52200D03*
G54D15*
X62200Y-52200D03*
X63200Y-52200D03*
G54D18*
X53600Y-42100D03*
G54D15*
X52600Y-42100D03*
X51600Y-42100D03*
G54D19*
X61300Y-47800D03*
G54D20*
X57380Y-50200D02*
X57380Y-49620D01*
X61300Y-47800D02*
X59200Y-47800D01*
X57380Y-49620D02*
X59200Y-47800D01*
X50700Y-51800D02*
X50900Y-51800D01*
X52580Y-51000D02*
X53380Y-50200D01*
X51700Y-51000D02*
X52580Y-51000D01*
X50900Y-51800D02*
X51700Y-51000D01*
X63400Y-42100D02*
X63400Y-42500D01*
X58380Y-43520D02*
X58380Y-44200D01*
X58800Y-43100D02*
X58380Y-43520D01*
X62800Y-43100D02*
X58800Y-43100D01*
X63400Y-42500D02*
X62800Y-43100D01*
X52700Y-51800D02*
X53500Y-51000D01*
X55380Y-50220D02*
X55380Y-50200D01*
X54600Y-51000D02*
X55380Y-50220D01*
X53500Y-51000D02*
X54600Y-51000D01*
X54380Y-44200D02*
X54380Y-44920D01*
X53800Y-45500D02*
X50800Y-45500D01*
X54380Y-44920D02*
X53800Y-45500D01*
X63120Y-46930D02*
X61130Y-46930D01*
X56900Y-42219D02*
X57019Y-42100D01*
X56900Y-44700D02*
X56900Y-42219D01*
X57300Y-45100D02*
X56900Y-44700D01*
X59300Y-45100D02*
X57300Y-45100D01*
X61130Y-46930D02*
X59300Y-45100D01*
G54D10*
G36*
X68950Y-54330D02*
X67524Y-54330D01*
X67524Y-44798D01*
X67514Y-44552D01*
X67439Y-44370D01*
X67429Y-44366D01*
X67429Y-43475D01*
X67425Y-43387D01*
X67425Y-42296D01*
X67345Y-42103D01*
X67197Y-41955D01*
X67004Y-41875D01*
X66796Y-41874D01*
X66603Y-41954D01*
X66455Y-42102D01*
X66375Y-42295D01*
X66374Y-42503D01*
X66454Y-42697D01*
X66602Y-42844D01*
X66728Y-42897D01*
X66627Y-42939D01*
X66602Y-43032D01*
X66900Y-43329D01*
X67197Y-43032D01*
X67172Y-42939D01*
X67062Y-42900D01*
X67197Y-42845D01*
X67344Y-42697D01*
X67424Y-42504D01*
X67425Y-42296D01*
X67425Y-43387D01*
X67418Y-43267D01*
X67360Y-43127D01*
X67267Y-43102D01*
X66970Y-43400D01*
X67267Y-43697D01*
X67360Y-43672D01*
X67429Y-43475D01*
X67429Y-44366D01*
X67336Y-44334D01*
X67265Y-44404D01*
X67265Y-44263D01*
X67229Y-44160D01*
X67197Y-44148D01*
X67197Y-43767D01*
X66900Y-43470D01*
X66829Y-43541D01*
X66829Y-43400D01*
X66532Y-43102D01*
X66439Y-43127D01*
X66370Y-43324D01*
X66381Y-43532D01*
X66439Y-43672D01*
X66532Y-43697D01*
X66829Y-43400D01*
X66829Y-43541D01*
X66602Y-43767D01*
X66627Y-43860D01*
X66824Y-43929D01*
X67032Y-43918D01*
X67172Y-43860D01*
X67197Y-43767D01*
X67197Y-44148D01*
X66998Y-44075D01*
X66752Y-44085D01*
X66570Y-44160D01*
X66534Y-44263D01*
X66900Y-44629D01*
X67265Y-44263D01*
X67265Y-44404D01*
X66970Y-44700D01*
X67336Y-45065D01*
X67439Y-45029D01*
X67524Y-44798D01*
X67524Y-54330D01*
X67520Y-54330D01*
X67520Y-49577D01*
X67425Y-49349D01*
X67276Y-49199D01*
X67425Y-49051D01*
X67519Y-48823D01*
X67520Y-48577D01*
X67425Y-48349D01*
X67276Y-48199D01*
X67425Y-48051D01*
X67519Y-47823D01*
X67520Y-47577D01*
X67425Y-47349D01*
X67276Y-47199D01*
X67425Y-47051D01*
X67519Y-46823D01*
X67520Y-46577D01*
X67425Y-46349D01*
X67276Y-46199D01*
X67425Y-46051D01*
X67519Y-45823D01*
X67520Y-45577D01*
X67425Y-45349D01*
X67252Y-45175D01*
X67265Y-45136D01*
X66900Y-44770D01*
X66829Y-44841D01*
X66829Y-44700D01*
X66463Y-44334D01*
X66360Y-44370D01*
X66275Y-44601D01*
X66285Y-44847D01*
X66360Y-45029D01*
X66463Y-45065D01*
X66829Y-44700D01*
X66829Y-44841D01*
X66534Y-45136D01*
X66547Y-45175D01*
X66374Y-45348D01*
X66280Y-45576D01*
X66279Y-45822D01*
X66374Y-46050D01*
X66523Y-46200D01*
X66374Y-46348D01*
X66280Y-46576D01*
X66279Y-46822D01*
X66374Y-47050D01*
X66523Y-47200D01*
X66374Y-47348D01*
X66280Y-47576D01*
X66279Y-47822D01*
X66374Y-48050D01*
X66523Y-48200D01*
X66374Y-48348D01*
X66280Y-48576D01*
X66279Y-48822D01*
X66374Y-49050D01*
X66523Y-49200D01*
X66374Y-49348D01*
X66280Y-49576D01*
X66279Y-49822D01*
X66374Y-50050D01*
X66548Y-50225D01*
X66776Y-50319D01*
X67022Y-50320D01*
X67250Y-50225D01*
X67425Y-50051D01*
X67519Y-49823D01*
X67520Y-49577D01*
X67520Y-54330D01*
X67446Y-54330D01*
X67446Y-52513D01*
X67446Y-51886D01*
X67404Y-51677D01*
X67286Y-51500D01*
X67109Y-51381D01*
X66900Y-51339D01*
X66690Y-51381D01*
X66513Y-51500D01*
X66395Y-51677D01*
X66394Y-51678D01*
X66385Y-51647D01*
X66251Y-51481D01*
X66062Y-51378D01*
X66034Y-51373D01*
X65950Y-51421D01*
X65950Y-52150D01*
X65957Y-52150D01*
X65957Y-52250D01*
X65950Y-52250D01*
X65950Y-52978D01*
X66034Y-53026D01*
X66062Y-53021D01*
X66251Y-52918D01*
X66385Y-52752D01*
X66394Y-52721D01*
X66395Y-52722D01*
X66513Y-52899D01*
X66690Y-53018D01*
X66900Y-53060D01*
X67109Y-53018D01*
X67286Y-52899D01*
X67404Y-52722D01*
X67446Y-52513D01*
X67446Y-54330D01*
X65946Y-54330D01*
X65946Y-42413D01*
X65946Y-41786D01*
X65904Y-41577D01*
X65786Y-41400D01*
X65609Y-41281D01*
X65400Y-41239D01*
X65190Y-41281D01*
X65013Y-41400D01*
X64895Y-41577D01*
X64894Y-41578D01*
X64885Y-41547D01*
X64751Y-41381D01*
X64562Y-41278D01*
X64534Y-41273D01*
X64450Y-41321D01*
X64450Y-42050D01*
X64457Y-42050D01*
X64457Y-42150D01*
X64450Y-42150D01*
X64450Y-42878D01*
X64534Y-42926D01*
X64562Y-42921D01*
X64751Y-42818D01*
X64885Y-42652D01*
X64894Y-42621D01*
X64895Y-42622D01*
X65013Y-42799D01*
X65190Y-42918D01*
X65400Y-42960D01*
X65609Y-42918D01*
X65786Y-42799D01*
X65904Y-42622D01*
X65946Y-42413D01*
X65946Y-54330D01*
X65887Y-54330D01*
X65887Y-49599D01*
X65810Y-49413D01*
X65667Y-49270D01*
X65497Y-49199D01*
X65666Y-49130D01*
X65809Y-48987D01*
X65886Y-48801D01*
X65887Y-48599D01*
X65810Y-48413D01*
X65667Y-48270D01*
X65497Y-48199D01*
X65666Y-48130D01*
X65809Y-47987D01*
X65886Y-47801D01*
X65887Y-47599D01*
X65810Y-47413D01*
X65667Y-47270D01*
X65497Y-47199D01*
X65666Y-47130D01*
X65809Y-46987D01*
X65886Y-46801D01*
X65887Y-46599D01*
X65810Y-46413D01*
X65667Y-46270D01*
X65497Y-46199D01*
X65666Y-46130D01*
X65809Y-45987D01*
X65886Y-45801D01*
X65887Y-45599D01*
X65810Y-45413D01*
X65667Y-45270D01*
X65497Y-45199D01*
X65666Y-45130D01*
X65809Y-44987D01*
X65886Y-44801D01*
X65887Y-44599D01*
X65810Y-44413D01*
X65667Y-44270D01*
X65481Y-44193D01*
X65279Y-44192D01*
X65093Y-44269D01*
X64950Y-44412D01*
X64887Y-44564D01*
X64887Y-44099D01*
X64810Y-43913D01*
X64667Y-43770D01*
X64481Y-43693D01*
X64279Y-43692D01*
X64093Y-43769D01*
X63950Y-43912D01*
X63879Y-44082D01*
X63810Y-43913D01*
X63667Y-43770D01*
X63481Y-43693D01*
X63279Y-43692D01*
X63093Y-43769D01*
X62950Y-43912D01*
X62879Y-44082D01*
X62810Y-43913D01*
X62667Y-43770D01*
X62481Y-43693D01*
X62279Y-43692D01*
X62093Y-43769D01*
X61950Y-43912D01*
X61879Y-44082D01*
X61810Y-43913D01*
X61667Y-43770D01*
X61481Y-43693D01*
X61279Y-43692D01*
X61093Y-43769D01*
X60950Y-43912D01*
X60879Y-44082D01*
X60810Y-43913D01*
X60667Y-43770D01*
X60481Y-43693D01*
X60279Y-43692D01*
X60093Y-43769D01*
X59950Y-43912D01*
X59879Y-44082D01*
X59810Y-43913D01*
X59667Y-43770D01*
X59481Y-43693D01*
X59279Y-43692D01*
X59093Y-43769D01*
X58950Y-43912D01*
X58879Y-44082D01*
X58810Y-43913D01*
X58680Y-43782D01*
X58680Y-43644D01*
X58924Y-43400D01*
X62800Y-43400D01*
X62800Y-43399D01*
X62914Y-43377D01*
X62914Y-43377D01*
X63012Y-43312D01*
X63370Y-42954D01*
X63400Y-42960D01*
X63609Y-42918D01*
X63786Y-42799D01*
X63904Y-42622D01*
X63905Y-42621D01*
X63914Y-42652D01*
X64048Y-42818D01*
X64237Y-42921D01*
X64265Y-42926D01*
X64350Y-42878D01*
X64350Y-42150D01*
X64342Y-42150D01*
X64342Y-42050D01*
X64350Y-42050D01*
X64350Y-41321D01*
X64265Y-41273D01*
X64237Y-41278D01*
X64048Y-41381D01*
X63914Y-41547D01*
X63905Y-41578D01*
X63904Y-41577D01*
X63786Y-41400D01*
X63609Y-41281D01*
X63400Y-41239D01*
X63190Y-41281D01*
X63013Y-41400D01*
X62895Y-41577D01*
X62894Y-41578D01*
X62885Y-41547D01*
X62751Y-41381D01*
X62562Y-41278D01*
X62534Y-41273D01*
X62450Y-41321D01*
X62450Y-42050D01*
X62457Y-42050D01*
X62457Y-42150D01*
X62450Y-42150D01*
X62450Y-42157D01*
X62350Y-42157D01*
X62350Y-42150D01*
X62342Y-42150D01*
X62342Y-42050D01*
X62350Y-42050D01*
X62350Y-41321D01*
X62265Y-41273D01*
X62237Y-41278D01*
X62048Y-41381D01*
X61914Y-41547D01*
X61905Y-41578D01*
X61904Y-41577D01*
X61786Y-41400D01*
X61609Y-41281D01*
X61400Y-41239D01*
X61190Y-41281D01*
X61013Y-41400D01*
X60900Y-41570D01*
X60786Y-41400D01*
X60609Y-41281D01*
X60400Y-41239D01*
X60190Y-41281D01*
X60013Y-41400D01*
X59895Y-41577D01*
X59853Y-41786D01*
X59853Y-41812D01*
X59844Y-41790D01*
X59690Y-41636D01*
X59490Y-41553D01*
X59272Y-41553D01*
X59071Y-41636D01*
X58986Y-41721D01*
X58902Y-41636D01*
X58702Y-41553D01*
X58484Y-41553D01*
X58283Y-41636D01*
X58129Y-41790D01*
X58119Y-41814D01*
X58119Y-41716D01*
X58092Y-41621D01*
X57887Y-41548D01*
X57670Y-41559D01*
X57521Y-41621D01*
X57494Y-41716D01*
X57807Y-42029D01*
X58119Y-41716D01*
X58119Y-41814D01*
X58088Y-41888D01*
X57877Y-42100D01*
X58088Y-42311D01*
X58129Y-42409D01*
X58283Y-42563D01*
X58483Y-42646D01*
X58701Y-42646D01*
X58902Y-42563D01*
X58987Y-42478D01*
X59071Y-42563D01*
X59271Y-42646D01*
X59489Y-42646D01*
X59690Y-42563D01*
X59844Y-42409D01*
X59853Y-42387D01*
X59853Y-42413D01*
X59895Y-42622D01*
X60013Y-42799D01*
X60013Y-42800D01*
X58800Y-42800D01*
X58685Y-42822D01*
X58587Y-42887D01*
X58167Y-43307D01*
X58119Y-43380D01*
X58119Y-42483D01*
X57807Y-42170D01*
X57494Y-42483D01*
X57521Y-42578D01*
X57726Y-42651D01*
X57943Y-42640D01*
X58092Y-42578D01*
X58119Y-42483D01*
X58119Y-43380D01*
X58102Y-43405D01*
X58080Y-43520D01*
X58080Y-43783D01*
X57950Y-43912D01*
X57879Y-44082D01*
X57810Y-43913D01*
X57667Y-43770D01*
X57481Y-43693D01*
X57279Y-43692D01*
X57200Y-43725D01*
X57200Y-42616D01*
X57328Y-42563D01*
X57482Y-42409D01*
X57521Y-42314D01*
X57736Y-42100D01*
X57521Y-41885D01*
X57482Y-41790D01*
X57328Y-41636D01*
X57128Y-41553D01*
X56910Y-41553D01*
X56709Y-41636D01*
X56555Y-41790D01*
X56472Y-41990D01*
X56472Y-42208D01*
X56555Y-42409D01*
X56600Y-42453D01*
X56600Y-43742D01*
X56481Y-43693D01*
X56446Y-43693D01*
X56446Y-42413D01*
X56446Y-41786D01*
X56404Y-41577D01*
X56286Y-41400D01*
X56109Y-41281D01*
X55900Y-41239D01*
X55690Y-41281D01*
X55513Y-41400D01*
X55400Y-41570D01*
X55286Y-41400D01*
X55109Y-41281D01*
X54900Y-41239D01*
X54690Y-41281D01*
X54513Y-41400D01*
X54395Y-41577D01*
X54353Y-41786D01*
X54353Y-42413D01*
X54395Y-42622D01*
X54513Y-42799D01*
X54690Y-42918D01*
X54900Y-42960D01*
X55109Y-42918D01*
X55286Y-42799D01*
X55400Y-42629D01*
X55513Y-42799D01*
X55690Y-42918D01*
X55900Y-42960D01*
X56109Y-42918D01*
X56286Y-42799D01*
X56404Y-42622D01*
X56446Y-42413D01*
X56446Y-43693D01*
X56279Y-43692D01*
X56093Y-43769D01*
X55950Y-43912D01*
X55879Y-44082D01*
X55810Y-43913D01*
X55667Y-43770D01*
X55481Y-43693D01*
X55279Y-43692D01*
X55093Y-43769D01*
X54950Y-43912D01*
X54879Y-44082D01*
X54810Y-43913D01*
X54667Y-43770D01*
X54481Y-43693D01*
X54279Y-43692D01*
X54146Y-43747D01*
X54146Y-42643D01*
X54146Y-41456D01*
X54108Y-41365D01*
X54038Y-41294D01*
X53946Y-41256D01*
X53846Y-41256D01*
X53253Y-41256D01*
X53162Y-41294D01*
X53091Y-41364D01*
X53053Y-41456D01*
X53053Y-41507D01*
X52951Y-41381D01*
X52762Y-41278D01*
X52734Y-41273D01*
X52650Y-41321D01*
X52650Y-42050D01*
X52657Y-42050D01*
X52657Y-42150D01*
X52650Y-42150D01*
X52650Y-42878D01*
X52734Y-42926D01*
X52762Y-42921D01*
X52951Y-42818D01*
X53053Y-42692D01*
X53053Y-42743D01*
X53091Y-42834D01*
X53161Y-42905D01*
X53253Y-42943D01*
X53353Y-42943D01*
X53946Y-42943D01*
X54037Y-42905D01*
X54108Y-42835D01*
X54146Y-42743D01*
X54146Y-42643D01*
X54146Y-43747D01*
X54093Y-43769D01*
X53950Y-43912D01*
X53879Y-44082D01*
X53810Y-43913D01*
X53667Y-43770D01*
X53481Y-43693D01*
X53279Y-43692D01*
X53093Y-43769D01*
X52950Y-43912D01*
X52899Y-44034D01*
X52845Y-43903D01*
X52697Y-43755D01*
X52550Y-43693D01*
X52550Y-42878D01*
X52550Y-42150D01*
X52542Y-42150D01*
X52542Y-42050D01*
X52550Y-42050D01*
X52550Y-41321D01*
X52465Y-41273D01*
X52437Y-41278D01*
X52248Y-41381D01*
X52114Y-41547D01*
X52105Y-41578D01*
X52104Y-41577D01*
X51986Y-41400D01*
X51809Y-41281D01*
X51600Y-41239D01*
X51390Y-41281D01*
X51213Y-41400D01*
X51095Y-41577D01*
X51053Y-41786D01*
X51053Y-42413D01*
X51095Y-42622D01*
X51213Y-42799D01*
X51390Y-42918D01*
X51600Y-42960D01*
X51809Y-42918D01*
X51986Y-42799D01*
X52104Y-42622D01*
X52105Y-42621D01*
X52114Y-42652D01*
X52248Y-42818D01*
X52437Y-42921D01*
X52465Y-42926D01*
X52550Y-42878D01*
X52550Y-43693D01*
X52504Y-43675D01*
X52296Y-43674D01*
X52103Y-43754D01*
X51955Y-43902D01*
X51875Y-44095D01*
X51874Y-44303D01*
X51954Y-44497D01*
X52102Y-44644D01*
X52295Y-44724D01*
X52503Y-44725D01*
X52697Y-44645D01*
X52844Y-44497D01*
X52899Y-44365D01*
X52949Y-44486D01*
X53092Y-44629D01*
X53278Y-44706D01*
X53480Y-44707D01*
X53666Y-44630D01*
X53809Y-44487D01*
X53880Y-44317D01*
X53949Y-44486D01*
X54080Y-44617D01*
X54080Y-44795D01*
X53675Y-45200D01*
X51557Y-45200D01*
X51499Y-45113D01*
X51322Y-44995D01*
X51113Y-44953D01*
X50746Y-44953D01*
X50746Y-42643D01*
X50746Y-41456D01*
X50708Y-41365D01*
X50638Y-41294D01*
X50546Y-41256D01*
X50446Y-41256D01*
X49853Y-41256D01*
X49762Y-41294D01*
X49691Y-41364D01*
X49653Y-41456D01*
X49653Y-41507D01*
X49551Y-41381D01*
X49362Y-41278D01*
X49334Y-41273D01*
X49250Y-41321D01*
X49250Y-42050D01*
X49257Y-42050D01*
X49257Y-42150D01*
X49250Y-42150D01*
X49250Y-42878D01*
X49334Y-42926D01*
X49362Y-42921D01*
X49551Y-42818D01*
X49653Y-42692D01*
X49653Y-42743D01*
X49691Y-42834D01*
X49761Y-42905D01*
X49853Y-42943D01*
X49953Y-42943D01*
X50546Y-42943D01*
X50637Y-42905D01*
X50708Y-42835D01*
X50746Y-42743D01*
X50746Y-42643D01*
X50746Y-44953D01*
X50486Y-44953D01*
X50277Y-44995D01*
X50100Y-45113D01*
X49981Y-45290D01*
X49939Y-45500D01*
X49981Y-45709D01*
X50100Y-45886D01*
X50270Y-46000D01*
X50100Y-46113D01*
X49981Y-46290D01*
X49939Y-46500D01*
X49981Y-46709D01*
X50100Y-46886D01*
X50270Y-47000D01*
X50100Y-47113D01*
X49981Y-47290D01*
X49939Y-47500D01*
X49981Y-47709D01*
X50100Y-47886D01*
X50270Y-48000D01*
X50100Y-48113D01*
X49981Y-48290D01*
X49939Y-48500D01*
X49981Y-48709D01*
X50100Y-48886D01*
X50270Y-49000D01*
X50100Y-49113D01*
X49981Y-49290D01*
X49939Y-49500D01*
X49981Y-49709D01*
X50100Y-49886D01*
X50277Y-50004D01*
X50278Y-50005D01*
X50247Y-50014D01*
X50081Y-50148D01*
X49978Y-50337D01*
X49973Y-50365D01*
X50021Y-50450D01*
X50750Y-50450D01*
X50750Y-50442D01*
X50850Y-50442D01*
X50850Y-50450D01*
X51578Y-50450D01*
X51626Y-50365D01*
X51621Y-50337D01*
X51518Y-50148D01*
X51352Y-50014D01*
X51321Y-50005D01*
X51322Y-50004D01*
X51499Y-49886D01*
X51618Y-49709D01*
X51660Y-49500D01*
X51618Y-49290D01*
X51499Y-49113D01*
X51329Y-49000D01*
X51499Y-48886D01*
X51618Y-48709D01*
X51660Y-48500D01*
X51618Y-48290D01*
X51499Y-48113D01*
X51329Y-48000D01*
X51499Y-47886D01*
X51618Y-47709D01*
X51660Y-47500D01*
X51618Y-47290D01*
X51499Y-47113D01*
X51329Y-47000D01*
X51499Y-46886D01*
X51618Y-46709D01*
X51660Y-46500D01*
X51618Y-46290D01*
X51499Y-46113D01*
X51329Y-46000D01*
X51499Y-45886D01*
X51557Y-45800D01*
X53800Y-45800D01*
X53800Y-45799D01*
X53914Y-45777D01*
X53914Y-45777D01*
X54012Y-45712D01*
X54592Y-45132D01*
X54592Y-45132D01*
X54657Y-45034D01*
X54679Y-44920D01*
X54680Y-44920D01*
X54680Y-44616D01*
X54809Y-44487D01*
X54880Y-44317D01*
X54949Y-44486D01*
X55092Y-44629D01*
X55278Y-44706D01*
X55480Y-44707D01*
X55666Y-44630D01*
X55809Y-44487D01*
X55880Y-44317D01*
X55949Y-44486D01*
X56092Y-44629D01*
X56278Y-44706D01*
X56480Y-44707D01*
X56600Y-44657D01*
X56600Y-44700D01*
X56622Y-44814D01*
X56687Y-44912D01*
X57087Y-45312D01*
X57087Y-45312D01*
X57185Y-45377D01*
X57299Y-45399D01*
X57300Y-45400D01*
X58507Y-45400D01*
X58405Y-45502D01*
X58325Y-45695D01*
X58324Y-45903D01*
X58404Y-46097D01*
X58552Y-46244D01*
X58745Y-46324D01*
X58953Y-46325D01*
X59147Y-46245D01*
X59294Y-46097D01*
X59374Y-45904D01*
X59375Y-45696D01*
X59307Y-45531D01*
X60180Y-46405D01*
X60016Y-46404D01*
X59823Y-46484D01*
X59675Y-46632D01*
X59595Y-46825D01*
X59594Y-47033D01*
X59674Y-47227D01*
X59822Y-47374D01*
X60015Y-47454D01*
X60223Y-47455D01*
X60417Y-47375D01*
X60564Y-47227D01*
X60644Y-47034D01*
X60645Y-46869D01*
X60917Y-47142D01*
X60917Y-47142D01*
X61015Y-47207D01*
X61130Y-47230D01*
X62677Y-47230D01*
X62822Y-47374D01*
X63015Y-47454D01*
X63223Y-47455D01*
X63417Y-47375D01*
X63564Y-47227D01*
X63644Y-47034D01*
X63645Y-46826D01*
X63565Y-46633D01*
X63417Y-46485D01*
X63224Y-46405D01*
X63016Y-46404D01*
X62823Y-46484D01*
X62677Y-46630D01*
X61254Y-46630D01*
X60759Y-46135D01*
X60793Y-46135D01*
X60987Y-46055D01*
X61134Y-45907D01*
X61214Y-45714D01*
X61215Y-45506D01*
X61135Y-45313D01*
X60987Y-45165D01*
X60794Y-45085D01*
X60586Y-45084D01*
X60393Y-45164D01*
X60245Y-45312D01*
X60165Y-45505D01*
X60165Y-45540D01*
X59512Y-44887D01*
X59414Y-44822D01*
X59300Y-44800D01*
X57424Y-44800D01*
X57331Y-44706D01*
X57480Y-44707D01*
X57666Y-44630D01*
X57809Y-44487D01*
X57880Y-44317D01*
X57949Y-44486D01*
X58092Y-44629D01*
X58278Y-44706D01*
X58480Y-44707D01*
X58666Y-44630D01*
X58809Y-44487D01*
X58880Y-44317D01*
X58949Y-44486D01*
X59092Y-44629D01*
X59278Y-44706D01*
X59480Y-44707D01*
X59666Y-44630D01*
X59809Y-44487D01*
X59880Y-44317D01*
X59949Y-44486D01*
X60092Y-44629D01*
X60278Y-44706D01*
X60480Y-44707D01*
X60666Y-44630D01*
X60809Y-44487D01*
X60880Y-44317D01*
X60949Y-44486D01*
X61092Y-44629D01*
X61278Y-44706D01*
X61480Y-44707D01*
X61666Y-44630D01*
X61809Y-44487D01*
X61880Y-44317D01*
X61949Y-44486D01*
X62092Y-44629D01*
X62278Y-44706D01*
X62480Y-44707D01*
X62666Y-44630D01*
X62809Y-44487D01*
X62880Y-44317D01*
X62949Y-44486D01*
X63092Y-44629D01*
X63278Y-44706D01*
X63480Y-44707D01*
X63666Y-44630D01*
X63809Y-44487D01*
X63880Y-44317D01*
X63949Y-44486D01*
X64092Y-44629D01*
X64278Y-44706D01*
X64480Y-44707D01*
X64666Y-44630D01*
X64809Y-44487D01*
X64886Y-44301D01*
X64887Y-44099D01*
X64887Y-44564D01*
X64873Y-44598D01*
X64872Y-44800D01*
X64949Y-44986D01*
X65092Y-45129D01*
X65262Y-45200D01*
X65093Y-45269D01*
X64950Y-45412D01*
X64873Y-45598D01*
X64872Y-45800D01*
X64949Y-45986D01*
X65092Y-46129D01*
X65262Y-46200D01*
X65093Y-46269D01*
X64950Y-46412D01*
X64873Y-46598D01*
X64872Y-46800D01*
X64949Y-46986D01*
X65092Y-47129D01*
X65262Y-47200D01*
X65093Y-47269D01*
X64950Y-47412D01*
X64873Y-47598D01*
X64872Y-47800D01*
X64949Y-47986D01*
X65092Y-48129D01*
X65262Y-48200D01*
X65093Y-48269D01*
X64950Y-48412D01*
X64873Y-48598D01*
X64872Y-48800D01*
X64949Y-48986D01*
X65092Y-49129D01*
X65262Y-49200D01*
X65093Y-49269D01*
X64950Y-49412D01*
X64873Y-49598D01*
X64872Y-49800D01*
X64949Y-49986D01*
X65092Y-50129D01*
X65278Y-50206D01*
X65480Y-50207D01*
X65666Y-50130D01*
X65809Y-49987D01*
X65886Y-49801D01*
X65887Y-49599D01*
X65887Y-54330D01*
X65850Y-54330D01*
X65850Y-52978D01*
X65850Y-52250D01*
X65842Y-52250D01*
X65842Y-52150D01*
X65850Y-52150D01*
X65850Y-51421D01*
X65765Y-51373D01*
X65737Y-51378D01*
X65548Y-51481D01*
X65446Y-51607D01*
X65446Y-51556D01*
X65408Y-51465D01*
X65338Y-51394D01*
X65246Y-51356D01*
X65146Y-51356D01*
X64887Y-51356D01*
X64887Y-50099D01*
X64810Y-49913D01*
X64667Y-49770D01*
X64481Y-49693D01*
X64279Y-49692D01*
X64215Y-49719D01*
X64215Y-45506D01*
X64135Y-45313D01*
X63987Y-45165D01*
X63794Y-45085D01*
X63586Y-45084D01*
X63393Y-45164D01*
X63245Y-45312D01*
X63165Y-45505D01*
X63164Y-45713D01*
X63244Y-45907D01*
X63392Y-46054D01*
X63585Y-46134D01*
X63793Y-46135D01*
X63987Y-46055D01*
X64134Y-45907D01*
X64214Y-45714D01*
X64215Y-45506D01*
X64215Y-49719D01*
X64093Y-49769D01*
X63950Y-49912D01*
X63880Y-50079D01*
X63880Y-50070D01*
X63825Y-49938D01*
X63734Y-49915D01*
X63664Y-49986D01*
X63664Y-49845D01*
X63641Y-49754D01*
X63451Y-49688D01*
X63250Y-49699D01*
X63118Y-49754D01*
X63095Y-49845D01*
X63380Y-50129D01*
X63664Y-49845D01*
X63664Y-49986D01*
X63450Y-50200D01*
X63734Y-50484D01*
X63825Y-50461D01*
X63877Y-50312D01*
X63949Y-50486D01*
X64092Y-50629D01*
X64278Y-50706D01*
X64480Y-50707D01*
X64666Y-50630D01*
X64809Y-50487D01*
X64886Y-50301D01*
X64887Y-50099D01*
X64887Y-51356D01*
X64553Y-51356D01*
X64462Y-51394D01*
X64391Y-51464D01*
X64353Y-51556D01*
X64353Y-51656D01*
X64353Y-52843D01*
X64391Y-52934D01*
X64461Y-53005D01*
X64553Y-53043D01*
X64653Y-53043D01*
X65246Y-53043D01*
X65337Y-53005D01*
X65408Y-52935D01*
X65446Y-52843D01*
X65446Y-52792D01*
X65548Y-52918D01*
X65737Y-53021D01*
X65765Y-53026D01*
X65850Y-52978D01*
X65850Y-54330D01*
X63746Y-54330D01*
X63746Y-52513D01*
X63746Y-51886D01*
X63704Y-51677D01*
X63664Y-51616D01*
X63664Y-50554D01*
X63380Y-50270D01*
X63309Y-50341D01*
X63309Y-50200D01*
X63025Y-49915D01*
X62934Y-49938D01*
X62882Y-50087D01*
X62810Y-49913D01*
X62667Y-49770D01*
X62481Y-49693D01*
X62279Y-49692D01*
X62093Y-49769D01*
X61950Y-49912D01*
X61879Y-50082D01*
X61810Y-49913D01*
X61667Y-49770D01*
X61481Y-49693D01*
X61387Y-49693D01*
X61387Y-49099D01*
X61310Y-48913D01*
X61167Y-48770D01*
X60981Y-48693D01*
X60779Y-48692D01*
X60593Y-48769D01*
X60450Y-48912D01*
X60379Y-49082D01*
X60310Y-48913D01*
X60167Y-48770D01*
X59981Y-48693D01*
X59779Y-48692D01*
X59593Y-48769D01*
X59450Y-48912D01*
X59373Y-49098D01*
X59372Y-49300D01*
X59449Y-49486D01*
X59592Y-49629D01*
X59778Y-49706D01*
X59980Y-49707D01*
X60166Y-49630D01*
X60309Y-49487D01*
X60380Y-49317D01*
X60449Y-49486D01*
X60592Y-49629D01*
X60778Y-49706D01*
X60980Y-49707D01*
X61166Y-49630D01*
X61309Y-49487D01*
X61386Y-49301D01*
X61387Y-49099D01*
X61387Y-49693D01*
X61279Y-49692D01*
X61093Y-49769D01*
X60950Y-49912D01*
X60879Y-50082D01*
X60810Y-49913D01*
X60667Y-49770D01*
X60481Y-49693D01*
X60279Y-49692D01*
X60093Y-49769D01*
X59950Y-49912D01*
X59879Y-50082D01*
X59810Y-49913D01*
X59667Y-49770D01*
X59481Y-49693D01*
X59279Y-49692D01*
X59093Y-49769D01*
X58950Y-49912D01*
X58879Y-50082D01*
X58810Y-49913D01*
X58667Y-49770D01*
X58481Y-49693D01*
X58279Y-49692D01*
X58093Y-49769D01*
X57950Y-49912D01*
X57879Y-50082D01*
X57810Y-49913D01*
X57680Y-49782D01*
X57680Y-49744D01*
X59324Y-48100D01*
X60998Y-48100D01*
X61058Y-48160D01*
X61215Y-48224D01*
X61384Y-48225D01*
X61540Y-48160D01*
X61660Y-48041D01*
X61724Y-47884D01*
X61725Y-47715D01*
X61660Y-47559D01*
X61541Y-47439D01*
X61384Y-47375D01*
X61215Y-47374D01*
X61059Y-47439D01*
X60998Y-47500D01*
X59295Y-47500D01*
X59295Y-46976D01*
X59215Y-46783D01*
X59067Y-46635D01*
X58874Y-46555D01*
X58666Y-46554D01*
X58473Y-46634D01*
X58325Y-46782D01*
X58245Y-46975D01*
X58244Y-47183D01*
X58324Y-47377D01*
X58472Y-47524D01*
X58665Y-47604D01*
X58873Y-47605D01*
X59067Y-47525D01*
X59214Y-47377D01*
X59294Y-47184D01*
X59295Y-46976D01*
X59295Y-47500D01*
X59200Y-47500D01*
X59085Y-47522D01*
X58987Y-47587D01*
X57167Y-49407D01*
X57102Y-49505D01*
X57080Y-49620D01*
X57080Y-49783D01*
X56950Y-49912D01*
X56879Y-50082D01*
X56810Y-49913D01*
X56667Y-49770D01*
X56481Y-49693D01*
X56375Y-49692D01*
X56375Y-45696D01*
X56295Y-45503D01*
X56147Y-45355D01*
X55954Y-45275D01*
X55746Y-45274D01*
X55553Y-45354D01*
X55405Y-45502D01*
X55325Y-45695D01*
X55324Y-45903D01*
X55404Y-46097D01*
X55552Y-46244D01*
X55745Y-46324D01*
X55953Y-46325D01*
X56147Y-46245D01*
X56294Y-46097D01*
X56374Y-45904D01*
X56375Y-45696D01*
X56375Y-49692D01*
X56295Y-49692D01*
X56295Y-46976D01*
X56215Y-46783D01*
X56067Y-46635D01*
X55874Y-46555D01*
X55666Y-46554D01*
X55473Y-46634D01*
X55325Y-46782D01*
X55245Y-46975D01*
X55244Y-47183D01*
X55324Y-47377D01*
X55472Y-47524D01*
X55665Y-47604D01*
X55873Y-47605D01*
X56067Y-47525D01*
X56214Y-47377D01*
X56294Y-47184D01*
X56295Y-46976D01*
X56295Y-49692D01*
X56279Y-49692D01*
X56093Y-49769D01*
X55950Y-49912D01*
X55879Y-50082D01*
X55810Y-49913D01*
X55667Y-49770D01*
X55481Y-49693D01*
X55279Y-49692D01*
X55093Y-49769D01*
X54950Y-49912D01*
X54879Y-50082D01*
X54810Y-49913D01*
X54667Y-49770D01*
X54481Y-49693D01*
X54279Y-49692D01*
X54093Y-49769D01*
X53950Y-49912D01*
X53879Y-50082D01*
X53810Y-49913D01*
X53667Y-49770D01*
X53481Y-49693D01*
X53279Y-49692D01*
X53093Y-49769D01*
X52950Y-49912D01*
X52873Y-50098D01*
X52872Y-50282D01*
X52455Y-50700D01*
X51700Y-50700D01*
X51588Y-50722D01*
X51621Y-50662D01*
X51626Y-50634D01*
X51578Y-50550D01*
X50850Y-50550D01*
X50850Y-51046D01*
X51147Y-51046D01*
X51263Y-51011D01*
X50959Y-51316D01*
X50809Y-51253D01*
X50750Y-51253D01*
X50750Y-51046D01*
X50750Y-50550D01*
X50021Y-50550D01*
X49973Y-50634D01*
X49978Y-50662D01*
X50081Y-50851D01*
X50247Y-50985D01*
X50453Y-51046D01*
X50750Y-51046D01*
X50750Y-51253D01*
X50591Y-51253D01*
X50390Y-51336D01*
X50236Y-51490D01*
X50200Y-51579D01*
X50163Y-51490D01*
X50009Y-51336D01*
X49925Y-51301D01*
X49925Y-44096D01*
X49845Y-43903D01*
X49697Y-43755D01*
X49504Y-43675D01*
X49296Y-43674D01*
X49150Y-43735D01*
X49150Y-42878D01*
X49150Y-42150D01*
X49150Y-42050D01*
X49150Y-41321D01*
X49065Y-41273D01*
X49037Y-41278D01*
X48848Y-41381D01*
X48714Y-41547D01*
X48653Y-41753D01*
X48653Y-42050D01*
X49150Y-42050D01*
X49150Y-42150D01*
X48653Y-42150D01*
X48653Y-42447D01*
X48714Y-42652D01*
X48848Y-42818D01*
X49037Y-42921D01*
X49065Y-42926D01*
X49150Y-42878D01*
X49150Y-43735D01*
X49103Y-43754D01*
X48955Y-43902D01*
X48875Y-44095D01*
X48874Y-44303D01*
X48954Y-44497D01*
X49102Y-44644D01*
X49295Y-44724D01*
X49503Y-44725D01*
X49697Y-44645D01*
X49844Y-44497D01*
X49924Y-44304D01*
X49925Y-44096D01*
X49925Y-51301D01*
X49809Y-51253D01*
X49591Y-51253D01*
X49390Y-51336D01*
X49236Y-51490D01*
X49153Y-51690D01*
X49153Y-51908D01*
X49236Y-52109D01*
X49390Y-52263D01*
X49590Y-52346D01*
X49808Y-52346D01*
X50009Y-52263D01*
X50163Y-52109D01*
X50199Y-52020D01*
X50236Y-52109D01*
X50390Y-52263D01*
X50590Y-52346D01*
X50808Y-52346D01*
X51009Y-52263D01*
X51163Y-52109D01*
X51199Y-52020D01*
X51236Y-52109D01*
X51390Y-52263D01*
X51590Y-52346D01*
X51808Y-52346D01*
X52009Y-52263D01*
X52163Y-52109D01*
X52199Y-52020D01*
X52236Y-52109D01*
X52390Y-52263D01*
X52590Y-52346D01*
X52808Y-52346D01*
X53009Y-52263D01*
X53163Y-52109D01*
X53199Y-52020D01*
X53236Y-52109D01*
X53390Y-52263D01*
X53590Y-52346D01*
X53808Y-52346D01*
X54009Y-52263D01*
X54163Y-52109D01*
X54197Y-52027D01*
X54221Y-52085D01*
X54316Y-52112D01*
X54629Y-51800D01*
X54316Y-51487D01*
X54221Y-51514D01*
X54199Y-51577D01*
X54163Y-51490D01*
X54009Y-51336D01*
X53920Y-51300D01*
X54466Y-51300D01*
X54414Y-51321D01*
X54387Y-51416D01*
X54700Y-51729D01*
X55012Y-51416D01*
X54985Y-51321D01*
X54780Y-51248D01*
X54755Y-51249D01*
X54812Y-51212D01*
X55317Y-50706D01*
X55480Y-50707D01*
X55666Y-50630D01*
X55809Y-50487D01*
X55880Y-50317D01*
X55949Y-50486D01*
X56092Y-50629D01*
X56278Y-50706D01*
X56480Y-50707D01*
X56666Y-50630D01*
X56809Y-50487D01*
X56880Y-50317D01*
X56949Y-50486D01*
X57092Y-50629D01*
X57278Y-50706D01*
X57480Y-50707D01*
X57666Y-50630D01*
X57809Y-50487D01*
X57880Y-50317D01*
X57949Y-50486D01*
X58092Y-50629D01*
X58278Y-50706D01*
X58480Y-50707D01*
X58666Y-50630D01*
X58809Y-50487D01*
X58880Y-50317D01*
X58949Y-50486D01*
X59092Y-50629D01*
X59278Y-50706D01*
X59480Y-50707D01*
X59666Y-50630D01*
X59809Y-50487D01*
X59880Y-50317D01*
X59949Y-50486D01*
X60092Y-50629D01*
X60278Y-50706D01*
X60480Y-50707D01*
X60666Y-50630D01*
X60809Y-50487D01*
X60880Y-50317D01*
X60949Y-50486D01*
X61092Y-50629D01*
X61278Y-50706D01*
X61480Y-50707D01*
X61666Y-50630D01*
X61809Y-50487D01*
X61880Y-50317D01*
X61949Y-50486D01*
X62092Y-50629D01*
X62278Y-50706D01*
X62480Y-50707D01*
X62666Y-50630D01*
X62809Y-50487D01*
X62879Y-50320D01*
X62879Y-50329D01*
X62934Y-50461D01*
X63025Y-50484D01*
X63309Y-50200D01*
X63309Y-50341D01*
X63095Y-50554D01*
X63118Y-50645D01*
X63308Y-50711D01*
X63509Y-50700D01*
X63641Y-50645D01*
X63664Y-50554D01*
X63664Y-51616D01*
X63586Y-51500D01*
X63409Y-51381D01*
X63200Y-51339D01*
X62990Y-51381D01*
X62813Y-51500D01*
X62695Y-51677D01*
X62694Y-51678D01*
X62685Y-51647D01*
X62551Y-51481D01*
X62362Y-51378D01*
X62334Y-51373D01*
X62250Y-51421D01*
X62250Y-52150D01*
X62257Y-52150D01*
X62257Y-52250D01*
X62250Y-52250D01*
X62250Y-52978D01*
X62334Y-53026D01*
X62362Y-53021D01*
X62551Y-52918D01*
X62685Y-52752D01*
X62694Y-52721D01*
X62695Y-52722D01*
X62813Y-52899D01*
X62990Y-53018D01*
X63200Y-53060D01*
X63409Y-53018D01*
X63586Y-52899D01*
X63704Y-52722D01*
X63746Y-52513D01*
X63746Y-54330D01*
X62150Y-54330D01*
X62150Y-52978D01*
X62150Y-52250D01*
X62142Y-52250D01*
X62142Y-52150D01*
X62150Y-52150D01*
X62150Y-51421D01*
X62065Y-51373D01*
X62037Y-51378D01*
X61848Y-51481D01*
X61746Y-51607D01*
X61746Y-51556D01*
X61708Y-51465D01*
X61638Y-51394D01*
X61546Y-51356D01*
X61446Y-51356D01*
X60853Y-51356D01*
X60762Y-51394D01*
X60691Y-51464D01*
X60653Y-51556D01*
X60653Y-51656D01*
X60653Y-52843D01*
X60691Y-52934D01*
X60761Y-53005D01*
X60853Y-53043D01*
X60953Y-53043D01*
X61546Y-53043D01*
X61637Y-53005D01*
X61708Y-52935D01*
X61746Y-52843D01*
X61746Y-52792D01*
X61848Y-52918D01*
X62037Y-53021D01*
X62065Y-53026D01*
X62150Y-52978D01*
X62150Y-54330D01*
X60046Y-54330D01*
X60046Y-52547D01*
X60046Y-52250D01*
X60046Y-52150D01*
X60046Y-51853D01*
X59985Y-51647D01*
X59851Y-51481D01*
X59662Y-51378D01*
X59634Y-51373D01*
X59550Y-51421D01*
X59550Y-52150D01*
X60046Y-52150D01*
X60046Y-52250D01*
X59550Y-52250D01*
X59550Y-52978D01*
X59634Y-53026D01*
X59662Y-53021D01*
X59851Y-52918D01*
X59985Y-52752D01*
X60046Y-52547D01*
X60046Y-54330D01*
X59450Y-54330D01*
X59450Y-52978D01*
X59450Y-52250D01*
X59442Y-52250D01*
X59442Y-52150D01*
X59450Y-52150D01*
X59450Y-51421D01*
X59365Y-51373D01*
X59337Y-51378D01*
X59148Y-51481D01*
X59014Y-51647D01*
X59005Y-51678D01*
X59004Y-51677D01*
X58886Y-51500D01*
X58709Y-51381D01*
X58500Y-51339D01*
X58290Y-51381D01*
X58113Y-51500D01*
X57995Y-51677D01*
X57953Y-51886D01*
X57953Y-52513D01*
X57995Y-52722D01*
X58113Y-52899D01*
X58290Y-53018D01*
X58500Y-53060D01*
X58709Y-53018D01*
X58886Y-52899D01*
X59004Y-52722D01*
X59005Y-52721D01*
X59014Y-52752D01*
X59148Y-52918D01*
X59337Y-53021D01*
X59365Y-53026D01*
X59450Y-52978D01*
X59450Y-54330D01*
X57246Y-54330D01*
X57246Y-52046D01*
X57246Y-51453D01*
X57208Y-51362D01*
X57138Y-51291D01*
X57046Y-51253D01*
X56946Y-51253D01*
X56353Y-51253D01*
X56262Y-51291D01*
X56191Y-51361D01*
X56153Y-51453D01*
X56153Y-51480D01*
X56009Y-51336D01*
X55809Y-51253D01*
X55591Y-51253D01*
X55390Y-51336D01*
X55236Y-51490D01*
X55202Y-51572D01*
X55178Y-51514D01*
X55083Y-51487D01*
X54770Y-51800D01*
X55083Y-52112D01*
X55178Y-52085D01*
X55200Y-52022D01*
X55236Y-52109D01*
X55390Y-52263D01*
X55590Y-52346D01*
X55808Y-52346D01*
X56009Y-52263D01*
X56153Y-52119D01*
X56153Y-52146D01*
X56191Y-52237D01*
X56261Y-52308D01*
X56353Y-52346D01*
X56453Y-52346D01*
X57046Y-52346D01*
X57137Y-52308D01*
X57208Y-52238D01*
X57246Y-52146D01*
X57246Y-52046D01*
X57246Y-54330D01*
X55012Y-54330D01*
X55012Y-52183D01*
X54700Y-51870D01*
X54387Y-52183D01*
X54414Y-52278D01*
X54619Y-52351D01*
X54836Y-52340D01*
X54985Y-52278D01*
X55012Y-52183D01*
X55012Y-54330D01*
X48592Y-54330D01*
X48648Y-54274D01*
X48648Y-54273D01*
X48777Y-54080D01*
X48778Y-54079D01*
X48818Y-53982D01*
X48864Y-53752D01*
X48864Y-53752D01*
X48864Y-53752D01*
X48864Y-53700D01*
X48864Y-53647D01*
X48864Y-53647D01*
X48864Y-53647D01*
X48818Y-53417D01*
X48778Y-53320D01*
X48777Y-53319D01*
X48648Y-53126D01*
X48648Y-53125D01*
X48574Y-53051D01*
X48379Y-52921D01*
X48281Y-52881D01*
X48280Y-52881D01*
X48053Y-52835D01*
X48052Y-52835D01*
X47947Y-52835D01*
X47717Y-52881D01*
X47620Y-52921D01*
X47619Y-52922D01*
X47426Y-53051D01*
X47425Y-53051D01*
X47351Y-53125D01*
X47269Y-53248D01*
X47269Y-39469D01*
X67748Y-39469D01*
X67626Y-39551D01*
X67625Y-39551D01*
X67551Y-39625D01*
X67421Y-39820D01*
X67381Y-39918D01*
X67381Y-39919D01*
X67335Y-40147D01*
X67335Y-40147D01*
X67335Y-40147D01*
X67335Y-40200D01*
X67335Y-40252D01*
X67335Y-40252D01*
X67335Y-40252D01*
X67381Y-40480D01*
X67381Y-40481D01*
X67421Y-40579D01*
X67551Y-40774D01*
X67625Y-40848D01*
X67626Y-40848D01*
X67819Y-40977D01*
X67820Y-40978D01*
X67917Y-41018D01*
X68147Y-41064D01*
X68252Y-41064D01*
X68253Y-41064D01*
X68480Y-41018D01*
X68481Y-41018D01*
X68579Y-40978D01*
X68774Y-40848D01*
X68848Y-40774D01*
X68848Y-40773D01*
X68950Y-40621D01*
X68950Y-54330D01*
X68950Y-54330D01*
G37*
G54D20*
X68950Y-54330D02*
X67524Y-54330D01*
X67524Y-44798D01*
X67514Y-44552D01*
X67439Y-44370D01*
X67429Y-44366D01*
X67429Y-43475D01*
X67425Y-43387D01*
X67425Y-42296D01*
X67345Y-42103D01*
X67197Y-41955D01*
X67004Y-41875D01*
X66796Y-41874D01*
X66603Y-41954D01*
X66455Y-42102D01*
X66375Y-42295D01*
X66374Y-42503D01*
X66454Y-42697D01*
X66602Y-42844D01*
X66728Y-42897D01*
X66627Y-42939D01*
X66602Y-43032D01*
X66900Y-43329D01*
X67197Y-43032D01*
X67172Y-42939D01*
X67062Y-42900D01*
X67197Y-42845D01*
X67344Y-42697D01*
X67424Y-42504D01*
X67425Y-42296D01*
X67425Y-43387D01*
X67418Y-43267D01*
X67360Y-43127D01*
X67267Y-43102D01*
X66970Y-43400D01*
X67267Y-43697D01*
X67360Y-43672D01*
X67429Y-43475D01*
X67429Y-44366D01*
X67336Y-44334D01*
X67265Y-44404D01*
X67265Y-44263D01*
X67229Y-44160D01*
X67197Y-44148D01*
X67197Y-43767D01*
X66900Y-43470D01*
X66829Y-43541D01*
X66829Y-43400D01*
X66532Y-43102D01*
X66439Y-43127D01*
X66370Y-43324D01*
X66381Y-43532D01*
X66439Y-43672D01*
X66532Y-43697D01*
X66829Y-43400D01*
X66829Y-43541D01*
X66602Y-43767D01*
X66627Y-43860D01*
X66824Y-43929D01*
X67032Y-43918D01*
X67172Y-43860D01*
X67197Y-43767D01*
X67197Y-44148D01*
X66998Y-44075D01*
X66752Y-44085D01*
X66570Y-44160D01*
X66534Y-44263D01*
X66900Y-44629D01*
X67265Y-44263D01*
X67265Y-44404D01*
X66970Y-44700D01*
X67336Y-45065D01*
X67439Y-45029D01*
X67524Y-44798D01*
X67524Y-54330D01*
X67520Y-54330D01*
X67520Y-49577D01*
X67425Y-49349D01*
X67276Y-49199D01*
X67425Y-49051D01*
X67519Y-48823D01*
X67520Y-48577D01*
X67425Y-48349D01*
X67276Y-48199D01*
X67425Y-48051D01*
X67519Y-47823D01*
X67520Y-47577D01*
X67425Y-47349D01*
X67276Y-47199D01*
X67425Y-47051D01*
X67519Y-46823D01*
X67520Y-46577D01*
X67425Y-46349D01*
X67276Y-46199D01*
X67425Y-46051D01*
X67519Y-45823D01*
X67520Y-45577D01*
X67425Y-45349D01*
X67252Y-45175D01*
X67265Y-45136D01*
X66900Y-44770D01*
X66829Y-44841D01*
X66829Y-44700D01*
X66463Y-44334D01*
X66360Y-44370D01*
X66275Y-44601D01*
X66285Y-44847D01*
X66360Y-45029D01*
X66463Y-45065D01*
X66829Y-44700D01*
X66829Y-44841D01*
X66534Y-45136D01*
X66547Y-45175D01*
X66374Y-45348D01*
X66280Y-45576D01*
X66279Y-45822D01*
X66374Y-46050D01*
X66523Y-46200D01*
X66374Y-46348D01*
X66280Y-46576D01*
X66279Y-46822D01*
X66374Y-47050D01*
X66523Y-47200D01*
X66374Y-47348D01*
X66280Y-47576D01*
X66279Y-47822D01*
X66374Y-48050D01*
X66523Y-48200D01*
X66374Y-48348D01*
X66280Y-48576D01*
X66279Y-48822D01*
X66374Y-49050D01*
X66523Y-49200D01*
X66374Y-49348D01*
X66280Y-49576D01*
X66279Y-49822D01*
X66374Y-50050D01*
X66548Y-50225D01*
X66776Y-50319D01*
X67022Y-50320D01*
X67250Y-50225D01*
X67425Y-50051D01*
X67519Y-49823D01*
X67520Y-49577D01*
X67520Y-54330D01*
X67446Y-54330D01*
X67446Y-52513D01*
X67446Y-51886D01*
X67404Y-51677D01*
X67286Y-51500D01*
X67109Y-51381D01*
X66900Y-51339D01*
X66690Y-51381D01*
X66513Y-51500D01*
X66395Y-51677D01*
X66394Y-51678D01*
X66385Y-51647D01*
X66251Y-51481D01*
X66062Y-51378D01*
X66034Y-51373D01*
X65950Y-51421D01*
X65950Y-52150D01*
X65957Y-52150D01*
X65957Y-52250D01*
X65950Y-52250D01*
X65950Y-52978D01*
X66034Y-53026D01*
X66062Y-53021D01*
X66251Y-52918D01*
X66385Y-52752D01*
X66394Y-52721D01*
X66395Y-52722D01*
X66513Y-52899D01*
X66690Y-53018D01*
X66900Y-53060D01*
X67109Y-53018D01*
X67286Y-52899D01*
X67404Y-52722D01*
X67446Y-52513D01*
X67446Y-54330D01*
X65946Y-54330D01*
X65946Y-42413D01*
X65946Y-41786D01*
X65904Y-41577D01*
X65786Y-41400D01*
X65609Y-41281D01*
X65400Y-41239D01*
X65190Y-41281D01*
X65013Y-41400D01*
X64895Y-41577D01*
X64894Y-41578D01*
X64885Y-41547D01*
X64751Y-41381D01*
X64562Y-41278D01*
X64534Y-41273D01*
X64450Y-41321D01*
X64450Y-42050D01*
X64457Y-42050D01*
X64457Y-42150D01*
X64450Y-42150D01*
X64450Y-42878D01*
X64534Y-42926D01*
X64562Y-42921D01*
X64751Y-42818D01*
X64885Y-42652D01*
X64894Y-42621D01*
X64895Y-42622D01*
X65013Y-42799D01*
X65190Y-42918D01*
X65400Y-42960D01*
X65609Y-42918D01*
X65786Y-42799D01*
X65904Y-42622D01*
X65946Y-42413D01*
X65946Y-54330D01*
X65887Y-54330D01*
X65887Y-49599D01*
X65810Y-49413D01*
X65667Y-49270D01*
X65497Y-49199D01*
X65666Y-49130D01*
X65809Y-48987D01*
X65886Y-48801D01*
X65887Y-48599D01*
X65810Y-48413D01*
X65667Y-48270D01*
X65497Y-48199D01*
X65666Y-48130D01*
X65809Y-47987D01*
X65886Y-47801D01*
X65887Y-47599D01*
X65810Y-47413D01*
X65667Y-47270D01*
X65497Y-47199D01*
X65666Y-47130D01*
X65809Y-46987D01*
X65886Y-46801D01*
X65887Y-46599D01*
X65810Y-46413D01*
X65667Y-46270D01*
X65497Y-46199D01*
X65666Y-46130D01*
X65809Y-45987D01*
X65886Y-45801D01*
X65887Y-45599D01*
X65810Y-45413D01*
X65667Y-45270D01*
X65497Y-45199D01*
X65666Y-45130D01*
X65809Y-44987D01*
X65886Y-44801D01*
X65887Y-44599D01*
X65810Y-44413D01*
X65667Y-44270D01*
X65481Y-44193D01*
X65279Y-44192D01*
X65093Y-44269D01*
X64950Y-44412D01*
X64887Y-44564D01*
X64887Y-44099D01*
X64810Y-43913D01*
X64667Y-43770D01*
X64481Y-43693D01*
X64279Y-43692D01*
X64093Y-43769D01*
X63950Y-43912D01*
X63879Y-44082D01*
X63810Y-43913D01*
X63667Y-43770D01*
X63481Y-43693D01*
X63279Y-43692D01*
X63093Y-43769D01*
X62950Y-43912D01*
X62879Y-44082D01*
X62810Y-43913D01*
X62667Y-43770D01*
X62481Y-43693D01*
X62279Y-43692D01*
X62093Y-43769D01*
X61950Y-43912D01*
X61879Y-44082D01*
X61810Y-43913D01*
X61667Y-43770D01*
X61481Y-43693D01*
X61279Y-43692D01*
X61093Y-43769D01*
X60950Y-43912D01*
X60879Y-44082D01*
X60810Y-43913D01*
X60667Y-43770D01*
X60481Y-43693D01*
X60279Y-43692D01*
X60093Y-43769D01*
X59950Y-43912D01*
X59879Y-44082D01*
X59810Y-43913D01*
X59667Y-43770D01*
X59481Y-43693D01*
X59279Y-43692D01*
X59093Y-43769D01*
X58950Y-43912D01*
X58879Y-44082D01*
X58810Y-43913D01*
X58680Y-43782D01*
X58680Y-43644D01*
X58924Y-43400D01*
X62800Y-43400D01*
X62800Y-43399D01*
X62914Y-43377D01*
X62914Y-43377D01*
X63012Y-43312D01*
X63370Y-42954D01*
X63400Y-42960D01*
X63609Y-42918D01*
X63786Y-42799D01*
X63904Y-42622D01*
X63905Y-42621D01*
X63914Y-42652D01*
X64048Y-42818D01*
X64237Y-42921D01*
X64265Y-42926D01*
X64350Y-42878D01*
X64350Y-42150D01*
X64342Y-42150D01*
X64342Y-42050D01*
X64350Y-42050D01*
X64350Y-41321D01*
X64265Y-41273D01*
X64237Y-41278D01*
X64048Y-41381D01*
X63914Y-41547D01*
X63905Y-41578D01*
X63904Y-41577D01*
X63786Y-41400D01*
X63609Y-41281D01*
X63400Y-41239D01*
X63190Y-41281D01*
X63013Y-41400D01*
X62895Y-41577D01*
X62894Y-41578D01*
X62885Y-41547D01*
X62751Y-41381D01*
X62562Y-41278D01*
X62534Y-41273D01*
X62450Y-41321D01*
X62450Y-42050D01*
X62457Y-42050D01*
X62457Y-42150D01*
X62450Y-42150D01*
X62450Y-42157D01*
X62350Y-42157D01*
X62350Y-42150D01*
X62342Y-42150D01*
X62342Y-42050D01*
X62350Y-42050D01*
X62350Y-41321D01*
X62265Y-41273D01*
X62237Y-41278D01*
X62048Y-41381D01*
X61914Y-41547D01*
X61905Y-41578D01*
X61904Y-41577D01*
X61786Y-41400D01*
X61609Y-41281D01*
X61400Y-41239D01*
X61190Y-41281D01*
X61013Y-41400D01*
X60900Y-41570D01*
X60786Y-41400D01*
X60609Y-41281D01*
X60400Y-41239D01*
X60190Y-41281D01*
X60013Y-41400D01*
X59895Y-41577D01*
X59853Y-41786D01*
X59853Y-41812D01*
X59844Y-41790D01*
X59690Y-41636D01*
X59490Y-41553D01*
X59272Y-41553D01*
X59071Y-41636D01*
X58986Y-41721D01*
X58902Y-41636D01*
X58702Y-41553D01*
X58484Y-41553D01*
X58283Y-41636D01*
X58129Y-41790D01*
X58119Y-41814D01*
X58119Y-41716D01*
X58092Y-41621D01*
X57887Y-41548D01*
X57670Y-41559D01*
X57521Y-41621D01*
X57494Y-41716D01*
X57807Y-42029D01*
X58119Y-41716D01*
X58119Y-41814D01*
X58088Y-41888D01*
X57877Y-42100D01*
X58088Y-42311D01*
X58129Y-42409D01*
X58283Y-42563D01*
X58483Y-42646D01*
X58701Y-42646D01*
X58902Y-42563D01*
X58987Y-42478D01*
X59071Y-42563D01*
X59271Y-42646D01*
X59489Y-42646D01*
X59690Y-42563D01*
X59844Y-42409D01*
X59853Y-42387D01*
X59853Y-42413D01*
X59895Y-42622D01*
X60013Y-42799D01*
X60013Y-42800D01*
X58800Y-42800D01*
X58685Y-42822D01*
X58587Y-42887D01*
X58167Y-43307D01*
X58119Y-43380D01*
X58119Y-42483D01*
X57807Y-42170D01*
X57494Y-42483D01*
X57521Y-42578D01*
X57726Y-42651D01*
X57943Y-42640D01*
X58092Y-42578D01*
X58119Y-42483D01*
X58119Y-43380D01*
X58102Y-43405D01*
X58080Y-43520D01*
X58080Y-43783D01*
X57950Y-43912D01*
X57879Y-44082D01*
X57810Y-43913D01*
X57667Y-43770D01*
X57481Y-43693D01*
X57279Y-43692D01*
X57200Y-43725D01*
X57200Y-42616D01*
X57328Y-42563D01*
X57482Y-42409D01*
X57521Y-42314D01*
X57736Y-42100D01*
X57521Y-41885D01*
X57482Y-41790D01*
X57328Y-41636D01*
X57128Y-41553D01*
X56910Y-41553D01*
X56709Y-41636D01*
X56555Y-41790D01*
X56472Y-41990D01*
X56472Y-42208D01*
X56555Y-42409D01*
X56600Y-42453D01*
X56600Y-43742D01*
X56481Y-43693D01*
X56446Y-43693D01*
X56446Y-42413D01*
X56446Y-41786D01*
X56404Y-41577D01*
X56286Y-41400D01*
X56109Y-41281D01*
X55900Y-41239D01*
X55690Y-41281D01*
X55513Y-41400D01*
X55400Y-41570D01*
X55286Y-41400D01*
X55109Y-41281D01*
X54900Y-41239D01*
X54690Y-41281D01*
X54513Y-41400D01*
X54395Y-41577D01*
X54353Y-41786D01*
X54353Y-42413D01*
X54395Y-42622D01*
X54513Y-42799D01*
X54690Y-42918D01*
X54900Y-42960D01*
X55109Y-42918D01*
X55286Y-42799D01*
X55400Y-42629D01*
X55513Y-42799D01*
X55690Y-42918D01*
X55900Y-42960D01*
X56109Y-42918D01*
X56286Y-42799D01*
X56404Y-42622D01*
X56446Y-42413D01*
X56446Y-43693D01*
X56279Y-43692D01*
X56093Y-43769D01*
X55950Y-43912D01*
X55879Y-44082D01*
X55810Y-43913D01*
X55667Y-43770D01*
X55481Y-43693D01*
X55279Y-43692D01*
X55093Y-43769D01*
X54950Y-43912D01*
X54879Y-44082D01*
X54810Y-43913D01*
X54667Y-43770D01*
X54481Y-43693D01*
X54279Y-43692D01*
X54146Y-43747D01*
X54146Y-42643D01*
X54146Y-41456D01*
X54108Y-41365D01*
X54038Y-41294D01*
X53946Y-41256D01*
X53846Y-41256D01*
X53253Y-41256D01*
X53162Y-41294D01*
X53091Y-41364D01*
X53053Y-41456D01*
X53053Y-41507D01*
X52951Y-41381D01*
X52762Y-41278D01*
X52734Y-41273D01*
X52650Y-41321D01*
X52650Y-42050D01*
X52657Y-42050D01*
X52657Y-42150D01*
X52650Y-42150D01*
X52650Y-42878D01*
X52734Y-42926D01*
X52762Y-42921D01*
X52951Y-42818D01*
X53053Y-42692D01*
X53053Y-42743D01*
X53091Y-42834D01*
X53161Y-42905D01*
X53253Y-42943D01*
X53353Y-42943D01*
X53946Y-42943D01*
X54037Y-42905D01*
X54108Y-42835D01*
X54146Y-42743D01*
X54146Y-42643D01*
X54146Y-43747D01*
X54093Y-43769D01*
X53950Y-43912D01*
X53879Y-44082D01*
X53810Y-43913D01*
X53667Y-43770D01*
X53481Y-43693D01*
X53279Y-43692D01*
X53093Y-43769D01*
X52950Y-43912D01*
X52899Y-44034D01*
X52845Y-43903D01*
X52697Y-43755D01*
X52550Y-43693D01*
X52550Y-42878D01*
X52550Y-42150D01*
X52542Y-42150D01*
X52542Y-42050D01*
X52550Y-42050D01*
X52550Y-41321D01*
X52465Y-41273D01*
X52437Y-41278D01*
X52248Y-41381D01*
X52114Y-41547D01*
X52105Y-41578D01*
X52104Y-41577D01*
X51986Y-41400D01*
X51809Y-41281D01*
X51600Y-41239D01*
X51390Y-41281D01*
X51213Y-41400D01*
X51095Y-41577D01*
X51053Y-41786D01*
X51053Y-42413D01*
X51095Y-42622D01*
X51213Y-42799D01*
X51390Y-42918D01*
X51600Y-42960D01*
X51809Y-42918D01*
X51986Y-42799D01*
X52104Y-42622D01*
X52105Y-42621D01*
X52114Y-42652D01*
X52248Y-42818D01*
X52437Y-42921D01*
X52465Y-42926D01*
X52550Y-42878D01*
X52550Y-43693D01*
X52504Y-43675D01*
X52296Y-43674D01*
X52103Y-43754D01*
X51955Y-43902D01*
X51875Y-44095D01*
X51874Y-44303D01*
X51954Y-44497D01*
X52102Y-44644D01*
X52295Y-44724D01*
X52503Y-44725D01*
X52697Y-44645D01*
X52844Y-44497D01*
X52899Y-44365D01*
X52949Y-44486D01*
X53092Y-44629D01*
X53278Y-44706D01*
X53480Y-44707D01*
X53666Y-44630D01*
X53809Y-44487D01*
X53880Y-44317D01*
X53949Y-44486D01*
X54080Y-44617D01*
X54080Y-44795D01*
X53675Y-45200D01*
X51557Y-45200D01*
X51499Y-45113D01*
X51322Y-44995D01*
X51113Y-44953D01*
X50746Y-44953D01*
X50746Y-42643D01*
X50746Y-41456D01*
X50708Y-41365D01*
X50638Y-41294D01*
X50546Y-41256D01*
X50446Y-41256D01*
X49853Y-41256D01*
X49762Y-41294D01*
X49691Y-41364D01*
X49653Y-41456D01*
X49653Y-41507D01*
X49551Y-41381D01*
X49362Y-41278D01*
X49334Y-41273D01*
X49250Y-41321D01*
X49250Y-42050D01*
X49257Y-42050D01*
X49257Y-42150D01*
X49250Y-42150D01*
X49250Y-42878D01*
X49334Y-42926D01*
X49362Y-42921D01*
X49551Y-42818D01*
X49653Y-42692D01*
X49653Y-42743D01*
X49691Y-42834D01*
X49761Y-42905D01*
X49853Y-42943D01*
X49953Y-42943D01*
X50546Y-42943D01*
X50637Y-42905D01*
X50708Y-42835D01*
X50746Y-42743D01*
X50746Y-42643D01*
X50746Y-44953D01*
X50486Y-44953D01*
X50277Y-44995D01*
X50100Y-45113D01*
X49981Y-45290D01*
X49939Y-45500D01*
X49981Y-45709D01*
X50100Y-45886D01*
X50270Y-46000D01*
X50100Y-46113D01*
X49981Y-46290D01*
X49939Y-46500D01*
X49981Y-46709D01*
X50100Y-46886D01*
X50270Y-47000D01*
X50100Y-47113D01*
X49981Y-47290D01*
X49939Y-47500D01*
X49981Y-47709D01*
X50100Y-47886D01*
X50270Y-48000D01*
X50100Y-48113D01*
X49981Y-48290D01*
X49939Y-48500D01*
X49981Y-48709D01*
X50100Y-48886D01*
X50270Y-49000D01*
X50100Y-49113D01*
X49981Y-49290D01*
X49939Y-49500D01*
X49981Y-49709D01*
X50100Y-49886D01*
X50277Y-50004D01*
X50278Y-50005D01*
X50247Y-50014D01*
X50081Y-50148D01*
X49978Y-50337D01*
X49973Y-50365D01*
X50021Y-50450D01*
X50750Y-50450D01*
X50750Y-50442D01*
X50850Y-50442D01*
X50850Y-50450D01*
X51578Y-50450D01*
X51626Y-50365D01*
X51621Y-50337D01*
X51518Y-50148D01*
X51352Y-50014D01*
X51321Y-50005D01*
X51322Y-50004D01*
X51499Y-49886D01*
X51618Y-49709D01*
X51660Y-49500D01*
X51618Y-49290D01*
X51499Y-49113D01*
X51329Y-49000D01*
X51499Y-48886D01*
X51618Y-48709D01*
X51660Y-48500D01*
X51618Y-48290D01*
X51499Y-48113D01*
X51329Y-48000D01*
X51499Y-47886D01*
X51618Y-47709D01*
X51660Y-47500D01*
X51618Y-47290D01*
X51499Y-47113D01*
X51329Y-47000D01*
X51499Y-46886D01*
X51618Y-46709D01*
X51660Y-46500D01*
X51618Y-46290D01*
X51499Y-46113D01*
X51329Y-46000D01*
X51499Y-45886D01*
X51557Y-45800D01*
X53800Y-45800D01*
X53800Y-45799D01*
X53914Y-45777D01*
X53914Y-45777D01*
X54012Y-45712D01*
X54592Y-45132D01*
X54592Y-45132D01*
X54657Y-45034D01*
X54679Y-44920D01*
X54680Y-44920D01*
X54680Y-44616D01*
X54809Y-44487D01*
X54880Y-44317D01*
X54949Y-44486D01*
X55092Y-44629D01*
X55278Y-44706D01*
X55480Y-44707D01*
X55666Y-44630D01*
X55809Y-44487D01*
X55880Y-44317D01*
X55949Y-44486D01*
X56092Y-44629D01*
X56278Y-44706D01*
X56480Y-44707D01*
X56600Y-44657D01*
X56600Y-44700D01*
X56622Y-44814D01*
X56687Y-44912D01*
X57087Y-45312D01*
X57087Y-45312D01*
X57185Y-45377D01*
X57299Y-45399D01*
X57300Y-45400D01*
X58507Y-45400D01*
X58405Y-45502D01*
X58325Y-45695D01*
X58324Y-45903D01*
X58404Y-46097D01*
X58552Y-46244D01*
X58745Y-46324D01*
X58953Y-46325D01*
X59147Y-46245D01*
X59294Y-46097D01*
X59374Y-45904D01*
X59375Y-45696D01*
X59307Y-45531D01*
X60180Y-46405D01*
X60016Y-46404D01*
X59823Y-46484D01*
X59675Y-46632D01*
X59595Y-46825D01*
X59594Y-47033D01*
X59674Y-47227D01*
X59822Y-47374D01*
X60015Y-47454D01*
X60223Y-47455D01*
X60417Y-47375D01*
X60564Y-47227D01*
X60644Y-47034D01*
X60645Y-46869D01*
X60917Y-47142D01*
X60917Y-47142D01*
X61015Y-47207D01*
X61130Y-47230D01*
X62677Y-47230D01*
X62822Y-47374D01*
X63015Y-47454D01*
X63223Y-47455D01*
X63417Y-47375D01*
X63564Y-47227D01*
X63644Y-47034D01*
X63645Y-46826D01*
X63565Y-46633D01*
X63417Y-46485D01*
X63224Y-46405D01*
X63016Y-46404D01*
X62823Y-46484D01*
X62677Y-46630D01*
X61254Y-46630D01*
X60759Y-46135D01*
X60793Y-46135D01*
X60987Y-46055D01*
X61134Y-45907D01*
X61214Y-45714D01*
X61215Y-45506D01*
X61135Y-45313D01*
X60987Y-45165D01*
X60794Y-45085D01*
X60586Y-45084D01*
X60393Y-45164D01*
X60245Y-45312D01*
X60165Y-45505D01*
X60165Y-45540D01*
X59512Y-44887D01*
X59414Y-44822D01*
X59300Y-44800D01*
X57424Y-44800D01*
X57331Y-44706D01*
X57480Y-44707D01*
X57666Y-44630D01*
X57809Y-44487D01*
X57880Y-44317D01*
X57949Y-44486D01*
X58092Y-44629D01*
X58278Y-44706D01*
X58480Y-44707D01*
X58666Y-44630D01*
X58809Y-44487D01*
X58880Y-44317D01*
X58949Y-44486D01*
X59092Y-44629D01*
X59278Y-44706D01*
X59480Y-44707D01*
X59666Y-44630D01*
X59809Y-44487D01*
X59880Y-44317D01*
X59949Y-44486D01*
X60092Y-44629D01*
X60278Y-44706D01*
X60480Y-44707D01*
X60666Y-44630D01*
X60809Y-44487D01*
X60880Y-44317D01*
X60949Y-44486D01*
X61092Y-44629D01*
X61278Y-44706D01*
X61480Y-44707D01*
X61666Y-44630D01*
X61809Y-44487D01*
X61880Y-44317D01*
X61949Y-44486D01*
X62092Y-44629D01*
X62278Y-44706D01*
X62480Y-44707D01*
X62666Y-44630D01*
X62809Y-44487D01*
X62880Y-44317D01*
X62949Y-44486D01*
X63092Y-44629D01*
X63278Y-44706D01*
X63480Y-44707D01*
X63666Y-44630D01*
X63809Y-44487D01*
X63880Y-44317D01*
X63949Y-44486D01*
X64092Y-44629D01*
X64278Y-44706D01*
X64480Y-44707D01*
X64666Y-44630D01*
X64809Y-44487D01*
X64886Y-44301D01*
X64887Y-44099D01*
X64887Y-44564D01*
X64873Y-44598D01*
X64872Y-44800D01*
X64949Y-44986D01*
X65092Y-45129D01*
X65262Y-45200D01*
X65093Y-45269D01*
X64950Y-45412D01*
X64873Y-45598D01*
X64872Y-45800D01*
X64949Y-45986D01*
X65092Y-46129D01*
X65262Y-46200D01*
X65093Y-46269D01*
X64950Y-46412D01*
X64873Y-46598D01*
X64872Y-46800D01*
X64949Y-46986D01*
X65092Y-47129D01*
X65262Y-47200D01*
X65093Y-47269D01*
X64950Y-47412D01*
X64873Y-47598D01*
X64872Y-47800D01*
X64949Y-47986D01*
X65092Y-48129D01*
X65262Y-48200D01*
X65093Y-48269D01*
X64950Y-48412D01*
X64873Y-48598D01*
X64872Y-48800D01*
X64949Y-48986D01*
X65092Y-49129D01*
X65262Y-49200D01*
X65093Y-49269D01*
X64950Y-49412D01*
X64873Y-49598D01*
X64872Y-49800D01*
X64949Y-49986D01*
X65092Y-50129D01*
X65278Y-50206D01*
X65480Y-50207D01*
X65666Y-50130D01*
X65809Y-49987D01*
X65886Y-49801D01*
X65887Y-49599D01*
X65887Y-54330D01*
X65850Y-54330D01*
X65850Y-52978D01*
X65850Y-52250D01*
X65842Y-52250D01*
X65842Y-52150D01*
X65850Y-52150D01*
X65850Y-51421D01*
X65765Y-51373D01*
X65737Y-51378D01*
X65548Y-51481D01*
X65446Y-51607D01*
X65446Y-51556D01*
X65408Y-51465D01*
X65338Y-51394D01*
X65246Y-51356D01*
X65146Y-51356D01*
X64887Y-51356D01*
X64887Y-50099D01*
X64810Y-49913D01*
X64667Y-49770D01*
X64481Y-49693D01*
X64279Y-49692D01*
X64215Y-49719D01*
X64215Y-45506D01*
X64135Y-45313D01*
X63987Y-45165D01*
X63794Y-45085D01*
X63586Y-45084D01*
X63393Y-45164D01*
X63245Y-45312D01*
X63165Y-45505D01*
X63164Y-45713D01*
X63244Y-45907D01*
X63392Y-46054D01*
X63585Y-46134D01*
X63793Y-46135D01*
X63987Y-46055D01*
X64134Y-45907D01*
X64214Y-45714D01*
X64215Y-45506D01*
X64215Y-49719D01*
X64093Y-49769D01*
X63950Y-49912D01*
X63880Y-50079D01*
X63880Y-50070D01*
X63825Y-49938D01*
X63734Y-49915D01*
X63664Y-49986D01*
X63664Y-49845D01*
X63641Y-49754D01*
X63451Y-49688D01*
X63250Y-49699D01*
X63118Y-49754D01*
X63095Y-49845D01*
X63380Y-50129D01*
X63664Y-49845D01*
X63664Y-49986D01*
X63450Y-50200D01*
X63734Y-50484D01*
X63825Y-50461D01*
X63877Y-50312D01*
X63949Y-50486D01*
X64092Y-50629D01*
X64278Y-50706D01*
X64480Y-50707D01*
X64666Y-50630D01*
X64809Y-50487D01*
X64886Y-50301D01*
X64887Y-50099D01*
X64887Y-51356D01*
X64553Y-51356D01*
X64462Y-51394D01*
X64391Y-51464D01*
X64353Y-51556D01*
X64353Y-51656D01*
X64353Y-52843D01*
X64391Y-52934D01*
X64461Y-53005D01*
X64553Y-53043D01*
X64653Y-53043D01*
X65246Y-53043D01*
X65337Y-53005D01*
X65408Y-52935D01*
X65446Y-52843D01*
X65446Y-52792D01*
X65548Y-52918D01*
X65737Y-53021D01*
X65765Y-53026D01*
X65850Y-52978D01*
X65850Y-54330D01*
X63746Y-54330D01*
X63746Y-52513D01*
X63746Y-51886D01*
X63704Y-51677D01*
X63664Y-51616D01*
X63664Y-50554D01*
X63380Y-50270D01*
X63309Y-50341D01*
X63309Y-50200D01*
X63025Y-49915D01*
X62934Y-49938D01*
X62882Y-50087D01*
X62810Y-49913D01*
X62667Y-49770D01*
X62481Y-49693D01*
X62279Y-49692D01*
X62093Y-49769D01*
X61950Y-49912D01*
X61879Y-50082D01*
X61810Y-49913D01*
X61667Y-49770D01*
X61481Y-49693D01*
X61387Y-49693D01*
X61387Y-49099D01*
X61310Y-48913D01*
X61167Y-48770D01*
X60981Y-48693D01*
X60779Y-48692D01*
X60593Y-48769D01*
X60450Y-48912D01*
X60379Y-49082D01*
X60310Y-48913D01*
X60167Y-48770D01*
X59981Y-48693D01*
X59779Y-48692D01*
X59593Y-48769D01*
X59450Y-48912D01*
X59373Y-49098D01*
X59372Y-49300D01*
X59449Y-49486D01*
X59592Y-49629D01*
X59778Y-49706D01*
X59980Y-49707D01*
X60166Y-49630D01*
X60309Y-49487D01*
X60380Y-49317D01*
X60449Y-49486D01*
X60592Y-49629D01*
X60778Y-49706D01*
X60980Y-49707D01*
X61166Y-49630D01*
X61309Y-49487D01*
X61386Y-49301D01*
X61387Y-49099D01*
X61387Y-49693D01*
X61279Y-49692D01*
X61093Y-49769D01*
X60950Y-49912D01*
X60879Y-50082D01*
X60810Y-49913D01*
X60667Y-49770D01*
X60481Y-49693D01*
X60279Y-49692D01*
X60093Y-49769D01*
X59950Y-49912D01*
X59879Y-50082D01*
X59810Y-49913D01*
X59667Y-49770D01*
X59481Y-49693D01*
X59279Y-49692D01*
X59093Y-49769D01*
X58950Y-49912D01*
X58879Y-50082D01*
X58810Y-49913D01*
X58667Y-49770D01*
X58481Y-49693D01*
X58279Y-49692D01*
X58093Y-49769D01*
X57950Y-49912D01*
X57879Y-50082D01*
X57810Y-49913D01*
X57680Y-49782D01*
X57680Y-49744D01*
X59324Y-48100D01*
X60998Y-48100D01*
X61058Y-48160D01*
X61215Y-48224D01*
X61384Y-48225D01*
X61540Y-48160D01*
X61660Y-48041D01*
X61724Y-47884D01*
X61725Y-47715D01*
X61660Y-47559D01*
X61541Y-47439D01*
X61384Y-47375D01*
X61215Y-47374D01*
X61059Y-47439D01*
X60998Y-47500D01*
X59295Y-47500D01*
X59295Y-46976D01*
X59215Y-46783D01*
X59067Y-46635D01*
X58874Y-46555D01*
X58666Y-46554D01*
X58473Y-46634D01*
X58325Y-46782D01*
X58245Y-46975D01*
X58244Y-47183D01*
X58324Y-47377D01*
X58472Y-47524D01*
X58665Y-47604D01*
X58873Y-47605D01*
X59067Y-47525D01*
X59214Y-47377D01*
X59294Y-47184D01*
X59295Y-46976D01*
X59295Y-47500D01*
X59200Y-47500D01*
X59085Y-47522D01*
X58987Y-47587D01*
X57167Y-49407D01*
X57102Y-49505D01*
X57080Y-49620D01*
X57080Y-49783D01*
X56950Y-49912D01*
X56879Y-50082D01*
X56810Y-49913D01*
X56667Y-49770D01*
X56481Y-49693D01*
X56375Y-49692D01*
X56375Y-45696D01*
X56295Y-45503D01*
X56147Y-45355D01*
X55954Y-45275D01*
X55746Y-45274D01*
X55553Y-45354D01*
X55405Y-45502D01*
X55325Y-45695D01*
X55324Y-45903D01*
X55404Y-46097D01*
X55552Y-46244D01*
X55745Y-46324D01*
X55953Y-46325D01*
X56147Y-46245D01*
X56294Y-46097D01*
X56374Y-45904D01*
X56375Y-45696D01*
X56375Y-49692D01*
X56295Y-49692D01*
X56295Y-46976D01*
X56215Y-46783D01*
X56067Y-46635D01*
X55874Y-46555D01*
X55666Y-46554D01*
X55473Y-46634D01*
X55325Y-46782D01*
X55245Y-46975D01*
X55244Y-47183D01*
X55324Y-47377D01*
X55472Y-47524D01*
X55665Y-47604D01*
X55873Y-47605D01*
X56067Y-47525D01*
X56214Y-47377D01*
X56294Y-47184D01*
X56295Y-46976D01*
X56295Y-49692D01*
X56279Y-49692D01*
X56093Y-49769D01*
X55950Y-49912D01*
X55879Y-50082D01*
X55810Y-49913D01*
X55667Y-49770D01*
X55481Y-49693D01*
X55279Y-49692D01*
X55093Y-49769D01*
X54950Y-49912D01*
X54879Y-50082D01*
X54810Y-49913D01*
X54667Y-49770D01*
X54481Y-49693D01*
X54279Y-49692D01*
X54093Y-49769D01*
X53950Y-49912D01*
X53879Y-50082D01*
X53810Y-49913D01*
X53667Y-49770D01*
X53481Y-49693D01*
X53279Y-49692D01*
X53093Y-49769D01*
X52950Y-49912D01*
X52873Y-50098D01*
X52872Y-50282D01*
X52455Y-50700D01*
X51700Y-50700D01*
X51588Y-50722D01*
X51621Y-50662D01*
X51626Y-50634D01*
X51578Y-50550D01*
X50850Y-50550D01*
X50850Y-51046D01*
X51147Y-51046D01*
X51263Y-51011D01*
X50959Y-51316D01*
X50809Y-51253D01*
X50750Y-51253D01*
X50750Y-51046D01*
X50750Y-50550D01*
X50021Y-50550D01*
X49973Y-50634D01*
X49978Y-50662D01*
X50081Y-50851D01*
X50247Y-50985D01*
X50453Y-51046D01*
X50750Y-51046D01*
X50750Y-51253D01*
X50591Y-51253D01*
X50390Y-51336D01*
X50236Y-51490D01*
X50200Y-51579D01*
X50163Y-51490D01*
X50009Y-51336D01*
X49925Y-51301D01*
X49925Y-44096D01*
X49845Y-43903D01*
X49697Y-43755D01*
X49504Y-43675D01*
X49296Y-43674D01*
X49150Y-43735D01*
X49150Y-42878D01*
X49150Y-42150D01*
X49150Y-42050D01*
X49150Y-41321D01*
X49065Y-41273D01*
X49037Y-41278D01*
X48848Y-41381D01*
X48714Y-41547D01*
X48653Y-41753D01*
X48653Y-42050D01*
X49150Y-42050D01*
X49150Y-42150D01*
X48653Y-42150D01*
X48653Y-42447D01*
X48714Y-42652D01*
X48848Y-42818D01*
X49037Y-42921D01*
X49065Y-42926D01*
X49150Y-42878D01*
X49150Y-43735D01*
X49103Y-43754D01*
X48955Y-43902D01*
X48875Y-44095D01*
X48874Y-44303D01*
X48954Y-44497D01*
X49102Y-44644D01*
X49295Y-44724D01*
X49503Y-44725D01*
X49697Y-44645D01*
X49844Y-44497D01*
X49924Y-44304D01*
X49925Y-44096D01*
X49925Y-51301D01*
X49809Y-51253D01*
X49591Y-51253D01*
X49390Y-51336D01*
X49236Y-51490D01*
X49153Y-51690D01*
X49153Y-51908D01*
X49236Y-52109D01*
X49390Y-52263D01*
X49590Y-52346D01*
X49808Y-52346D01*
X50009Y-52263D01*
X50163Y-52109D01*
X50199Y-52020D01*
X50236Y-52109D01*
X50390Y-52263D01*
X50590Y-52346D01*
X50808Y-52346D01*
X51009Y-52263D01*
X51163Y-52109D01*
X51199Y-52020D01*
X51236Y-52109D01*
X51390Y-52263D01*
X51590Y-52346D01*
X51808Y-52346D01*
X52009Y-52263D01*
X52163Y-52109D01*
X52199Y-52020D01*
X52236Y-52109D01*
X52390Y-52263D01*
X52590Y-52346D01*
X52808Y-52346D01*
X53009Y-52263D01*
X53163Y-52109D01*
X53199Y-52020D01*
X53236Y-52109D01*
X53390Y-52263D01*
X53590Y-52346D01*
X53808Y-52346D01*
X54009Y-52263D01*
X54163Y-52109D01*
X54197Y-52027D01*
X54221Y-52085D01*
X54316Y-52112D01*
X54629Y-51800D01*
X54316Y-51487D01*
X54221Y-51514D01*
X54199Y-51577D01*
X54163Y-51490D01*
X54009Y-51336D01*
X53920Y-51300D01*
X54466Y-51300D01*
X54414Y-51321D01*
X54387Y-51416D01*
X54700Y-51729D01*
X55012Y-51416D01*
X54985Y-51321D01*
X54780Y-51248D01*
X54755Y-51249D01*
X54812Y-51212D01*
X55317Y-50706D01*
X55480Y-50707D01*
X55666Y-50630D01*
X55809Y-50487D01*
X55880Y-50317D01*
X55949Y-50486D01*
X56092Y-50629D01*
X56278Y-50706D01*
X56480Y-50707D01*
X56666Y-50630D01*
X56809Y-50487D01*
X56880Y-50317D01*
X56949Y-50486D01*
X57092Y-50629D01*
X57278Y-50706D01*
X57480Y-50707D01*
X57666Y-50630D01*
X57809Y-50487D01*
X57880Y-50317D01*
X57949Y-50486D01*
X58092Y-50629D01*
X58278Y-50706D01*
X58480Y-50707D01*
X58666Y-50630D01*
X58809Y-50487D01*
X58880Y-50317D01*
X58949Y-50486D01*
X59092Y-50629D01*
X59278Y-50706D01*
X59480Y-50707D01*
X59666Y-50630D01*
X59809Y-50487D01*
X59880Y-50317D01*
X59949Y-50486D01*
X60092Y-50629D01*
X60278Y-50706D01*
X60480Y-50707D01*
X60666Y-50630D01*
X60809Y-50487D01*
X60880Y-50317D01*
X60949Y-50486D01*
X61092Y-50629D01*
X61278Y-50706D01*
X61480Y-50707D01*
X61666Y-50630D01*
X61809Y-50487D01*
X61880Y-50317D01*
X61949Y-50486D01*
X62092Y-50629D01*
X62278Y-50706D01*
X62480Y-50707D01*
X62666Y-50630D01*
X62809Y-50487D01*
X62879Y-50320D01*
X62879Y-50329D01*
X62934Y-50461D01*
X63025Y-50484D01*
X63309Y-50200D01*
X63309Y-50341D01*
X63095Y-50554D01*
X63118Y-50645D01*
X63308Y-50711D01*
X63509Y-50700D01*
X63641Y-50645D01*
X63664Y-50554D01*
X63664Y-51616D01*
X63586Y-51500D01*
X63409Y-51381D01*
X63200Y-51339D01*
X62990Y-51381D01*
X62813Y-51500D01*
X62695Y-51677D01*
X62694Y-51678D01*
X62685Y-51647D01*
X62551Y-51481D01*
X62362Y-51378D01*
X62334Y-51373D01*
X62250Y-51421D01*
X62250Y-52150D01*
X62257Y-52150D01*
X62257Y-52250D01*
X62250Y-52250D01*
X62250Y-52978D01*
X62334Y-53026D01*
X62362Y-53021D01*
X62551Y-52918D01*
X62685Y-52752D01*
X62694Y-52721D01*
X62695Y-52722D01*
X62813Y-52899D01*
X62990Y-53018D01*
X63200Y-53060D01*
X63409Y-53018D01*
X63586Y-52899D01*
X63704Y-52722D01*
X63746Y-52513D01*
X63746Y-54330D01*
X62150Y-54330D01*
X62150Y-52978D01*
X62150Y-52250D01*
X62142Y-52250D01*
X62142Y-52150D01*
X62150Y-52150D01*
X62150Y-51421D01*
X62065Y-51373D01*
X62037Y-51378D01*
X61848Y-51481D01*
X61746Y-51607D01*
X61746Y-51556D01*
X61708Y-51465D01*
X61638Y-51394D01*
X61546Y-51356D01*
X61446Y-51356D01*
X60853Y-51356D01*
X60762Y-51394D01*
X60691Y-51464D01*
X60653Y-51556D01*
X60653Y-51656D01*
X60653Y-52843D01*
X60691Y-52934D01*
X60761Y-53005D01*
X60853Y-53043D01*
X60953Y-53043D01*
X61546Y-53043D01*
X61637Y-53005D01*
X61708Y-52935D01*
X61746Y-52843D01*
X61746Y-52792D01*
X61848Y-52918D01*
X62037Y-53021D01*
X62065Y-53026D01*
X62150Y-52978D01*
X62150Y-54330D01*
X60046Y-54330D01*
X60046Y-52547D01*
X60046Y-52250D01*
X60046Y-52150D01*
X60046Y-51853D01*
X59985Y-51647D01*
X59851Y-51481D01*
X59662Y-51378D01*
X59634Y-51373D01*
X59550Y-51421D01*
X59550Y-52150D01*
X60046Y-52150D01*
X60046Y-52250D01*
X59550Y-52250D01*
X59550Y-52978D01*
X59634Y-53026D01*
X59662Y-53021D01*
X59851Y-52918D01*
X59985Y-52752D01*
X60046Y-52547D01*
X60046Y-54330D01*
X59450Y-54330D01*
X59450Y-52978D01*
X59450Y-52250D01*
X59442Y-52250D01*
X59442Y-52150D01*
X59450Y-52150D01*
X59450Y-51421D01*
X59365Y-51373D01*
X59337Y-51378D01*
X59148Y-51481D01*
X59014Y-51647D01*
X59005Y-51678D01*
X59004Y-51677D01*
X58886Y-51500D01*
X58709Y-51381D01*
X58500Y-51339D01*
X58290Y-51381D01*
X58113Y-51500D01*
X57995Y-51677D01*
X57953Y-51886D01*
X57953Y-52513D01*
X57995Y-52722D01*
X58113Y-52899D01*
X58290Y-53018D01*
X58500Y-53060D01*
X58709Y-53018D01*
X58886Y-52899D01*
X59004Y-52722D01*
X59005Y-52721D01*
X59014Y-52752D01*
X59148Y-52918D01*
X59337Y-53021D01*
X59365Y-53026D01*
X59450Y-52978D01*
X59450Y-54330D01*
X57246Y-54330D01*
X57246Y-52046D01*
X57246Y-51453D01*
X57208Y-51362D01*
X57138Y-51291D01*
X57046Y-51253D01*
X56946Y-51253D01*
X56353Y-51253D01*
X56262Y-51291D01*
X56191Y-51361D01*
X56153Y-51453D01*
X56153Y-51480D01*
X56009Y-51336D01*
X55809Y-51253D01*
X55591Y-51253D01*
X55390Y-51336D01*
X55236Y-51490D01*
X55202Y-51572D01*
X55178Y-51514D01*
X55083Y-51487D01*
X54770Y-51800D01*
X55083Y-52112D01*
X55178Y-52085D01*
X55200Y-52022D01*
X55236Y-52109D01*
X55390Y-52263D01*
X55590Y-52346D01*
X55808Y-52346D01*
X56009Y-52263D01*
X56153Y-52119D01*
X56153Y-52146D01*
X56191Y-52237D01*
X56261Y-52308D01*
X56353Y-52346D01*
X56453Y-52346D01*
X57046Y-52346D01*
X57137Y-52308D01*
X57208Y-52238D01*
X57246Y-52146D01*
X57246Y-52046D01*
X57246Y-54330D01*
X55012Y-54330D01*
X55012Y-52183D01*
X54700Y-51870D01*
X54387Y-52183D01*
X54414Y-52278D01*
X54619Y-52351D01*
X54836Y-52340D01*
X54985Y-52278D01*
X55012Y-52183D01*
X55012Y-54330D01*
X48592Y-54330D01*
X48648Y-54274D01*
X48648Y-54273D01*
X48777Y-54080D01*
X48778Y-54079D01*
X48818Y-53982D01*
X48864Y-53752D01*
X48864Y-53752D01*
X48864Y-53752D01*
X48864Y-53700D01*
X48864Y-53647D01*
X48864Y-53647D01*
X48864Y-53647D01*
X48818Y-53417D01*
X48778Y-53320D01*
X48777Y-53319D01*
X48648Y-53126D01*
X48648Y-53125D01*
X48574Y-53051D01*
X48379Y-52921D01*
X48281Y-52881D01*
X48280Y-52881D01*
X48053Y-52835D01*
X48052Y-52835D01*
X47947Y-52835D01*
X47717Y-52881D01*
X47620Y-52921D01*
X47619Y-52922D01*
X47426Y-53051D01*
X47425Y-53051D01*
X47351Y-53125D01*
X47269Y-53248D01*
X47269Y-39469D01*
X67748Y-39469D01*
X67626Y-39551D01*
X67625Y-39551D01*
X67551Y-39625D01*
X67421Y-39820D01*
X67381Y-39918D01*
X67381Y-39919D01*
X67335Y-40147D01*
X67335Y-40147D01*
X67335Y-40147D01*
X67335Y-40200D01*
X67335Y-40252D01*
X67335Y-40252D01*
X67335Y-40252D01*
X67381Y-40480D01*
X67381Y-40481D01*
X67421Y-40579D01*
X67551Y-40774D01*
X67625Y-40848D01*
X67626Y-40848D01*
X67819Y-40977D01*
X67820Y-40978D01*
X67917Y-41018D01*
X68147Y-41064D01*
X68252Y-41064D01*
X68253Y-41064D01*
X68480Y-41018D01*
X68481Y-41018D01*
X68579Y-40978D01*
X68774Y-40848D01*
X68848Y-40774D01*
X68848Y-40773D01*
X68950Y-40621D01*
X68950Y-54330D01*
M02*
